<svg id="_008---Coffee-and-Croissant" data-name="008---Coffee-and-Croissant" xmlns="http://www.w3.org/2000/svg" width="32" height="27.197" viewBox="0 0 32 27.197">
  <path id="Shape" d="M30.744,29.932h-3.6a7.413,7.413,0,0,0,3.291-2.781,1.013,1.013,0,0,0,.058-.932c-.035-.08-.079-.176-.128-.281a9.738,9.738,0,0,0,1.395-3,11.084,11.084,0,0,0,.166-3.54,1.3,1.3,0,0,0-.869-1.088c-.541-2.595-1.269-3.009-1.515-3.146a1.183,1.183,0,0,0-1.026-.073c-1.32.5-1.325,1.683-1.329,2.723,0,.249-.008.5-.024.757a1.514,1.514,0,0,0-1.092,1,3.661,3.661,0,0,1-.439.878,6.471,6.471,0,0,0-.679-.312.974.974,0,0,0-.684,0l-2.738,1.046a.992.992,0,0,0-.507.44,7.278,7.278,0,0,0-.342.713,3.669,3.669,0,0,1-.419-.157V16.067A1.067,1.067,0,0,0,19.2,15H6.4a1.067,1.067,0,0,0-1.067,1.067v.726A6,6,0,0,0,3.824,16.6C0,16.6,0,20.8,0,22.183c0,3.087,1.5,5.082,3.824,5.082a6.747,6.747,0,0,0,1.819-.26A5.827,5.827,0,0,0,7.82,29.932H3.386A1.158,1.158,0,0,0,2.133,31v1.067A2.436,2.436,0,0,0,4.826,34.2H29.3A2.436,2.436,0,0,0,32,32.065V31a1.158,1.158,0,0,0-1.253-1.067ZM28.9,16.08a.122.122,0,0,1,.126.006c.091.051.529.387.932,2.153-.448.019-1.03.058-1.706.146.007-.2.009-.393.009-.574C28.26,16.706,28.314,16.3,28.9,16.08Zm-1.807,3.807a.454.454,0,0,1,.357-.3c.1-.02.2-.035.3-.053a17.7,17.7,0,0,1,2.818-.247h.035a.25.25,0,0,1,.264.213,10.008,10.008,0,0,1-.142,3.182,8.029,8.029,0,0,1-.926,2.158A12.212,12.212,0,0,0,26.543,21,4.723,4.723,0,0,0,27.091,19.887Zm-5.146,2.272,2.673-1.021c2.855,1.123,4.586,4.785,4.906,5.471a6.9,6.9,0,0,1-3.684,2.728,8.889,8.889,0,0,1-2.616.595h-.7a4.22,4.22,0,0,1-1.1-.2c-.03-.131-.071-.31-.113-.525-.254-1.321-.7-4.641.63-7.05ZM18.7,29.109a10.115,10.115,0,0,0,1.635.625c.016.075.031.138.044.2H17.758a5.886,5.886,0,0,0,.938-.823Zm1.425-.564a7.12,7.12,0,0,1-2-1.037,9.188,9.188,0,0,1-2-2.352.32.32,0,0,1,.1-.389l.02-.019a18.945,18.945,0,0,1,2.342-1.723c.085-.053.17-.11.273-.17a.39.39,0,0,1,.411-.009,4.266,4.266,0,0,0,1.075.488,13.229,13.229,0,0,0-.213,5.212Zm-4.616-7.291a.178.178,0,0,1,.116-.119c.565-.213.824.042,1.483.886.113.145.234.3.364.454-.581.39-1.06.751-1.421,1.043a3.815,3.815,0,0,1-.542-2.264ZM5.333,23.731a3.817,3.817,0,0,1-1.509.334c-.405,0-.624-.97-.624-1.882,0-2.384.36-2.384.624-2.384a2.274,2.274,0,0,1,1.509.493ZM1.067,22.185c0-2.1.314-4.518,2.757-4.518a4.806,4.806,0,0,1,1.509.235v1.146a3.563,3.563,0,0,0-1.509-.315c-1.561,0-1.69,1.632-1.69,3.45,0,1.847.632,2.949,1.69,2.949a4.676,4.676,0,0,0,1.509-.267v.267a5.771,5.771,0,0,0,.067.832,5.721,5.721,0,0,1-1.576.234c-1.726,0-2.757-1.5-2.757-4.016Zm5.457,4.027A4.693,4.693,0,0,1,6.4,25.132V16.067H19.2v5.677a1.451,1.451,0,0,0-.809.16c-.154-.176-.3-.357-.444-.539-.6-.774-1.355-1.74-2.7-1.227a1.239,1.239,0,0,0-.731.728c-.278.716-.036,1.845.725,3.43a1.343,1.343,0,0,0-.024,1.422,10.261,10.261,0,0,0,2.255,2.634c.093.072.19.138.286.2A4.76,4.76,0,0,1,14.4,29.932H11.2A4.773,4.773,0,0,1,6.524,26.21ZM30.93,32.065c0,.578-.747,1.067-1.627,1.067H4.826c-.88,0-1.627-.488-1.627-1.067V31.047A.34.34,0,0,1,3.386,31H30.744a.34.34,0,0,1,.187.049Z" transform="translate(0 -7.001)"/>
  <path id="Shape-2" data-name="Shape" d="M22,5.866a.533.533,0,0,0,1.067,0,1.377,1.377,0,0,1,.416-1,2.461,2.461,0,0,0,0-3.333,1.377,1.377,0,0,1-.416-1A.533.533,0,0,0,22,.533,2.414,2.414,0,0,0,22.65,2.2a1.408,1.408,0,0,1,0,2A2.414,2.414,0,0,0,22,5.866Z" transform="translate(-10.268)"/>
  <path id="Shape-3" data-name="Shape" d="M16,5.866a.533.533,0,0,0,1.067,0,1.377,1.377,0,0,1,.416-1,2.461,2.461,0,0,0,0-3.333,1.377,1.377,0,0,1-.416-1A.533.533,0,0,0,16,.533,2.414,2.414,0,0,0,16.65,2.2a1.408,1.408,0,0,1,0,2A2.414,2.414,0,0,0,16,5.866Z" transform="translate(-7.467)"/>
  <path id="Shape-4" data-name="Shape" d="M28,5.866a.533.533,0,1,0,1.067,0,1.377,1.377,0,0,1,.416-1,2.461,2.461,0,0,0,0-3.333,1.377,1.377,0,0,1-.416-1A.533.533,0,0,0,28,.533,2.414,2.414,0,0,0,28.65,2.2a1.408,1.408,0,0,1,0,2A2.414,2.414,0,0,0,28,5.866Z" transform="translate(-13.068)"/>
</svg>
