<svg xmlns="http://www.w3.org/2000/svg" width="13.86" height="16.17" viewBox="0 0 13.86 16.17">
  <path id="Icon_material-live-help" data-name="Icon material-live-help" d="M16.82,3H6.04A1.54,1.54,0,0,0,4.5,4.54V15.32a1.54,1.54,0,0,0,1.54,1.54H9.12l2.31,2.31,2.31-2.31h3.08a1.544,1.544,0,0,0,1.54-1.54V4.54A1.544,1.544,0,0,0,16.82,3ZM12.2,15.32H10.66V13.78H12.2Zm1.594-5.967-.693.708a2.621,2.621,0,0,0-.9,2.179H10.66v-.385a3.1,3.1,0,0,1,.9-2.179l.955-.97A1.506,1.506,0,0,0,12.97,7.62a1.54,1.54,0,0,0-3.08,0H8.35a3.08,3.08,0,1,1,6.16,0A2.45,2.45,0,0,1,13.794,9.352Z" transform="translate(-4.5 -3)" fill="#4a89f5"/>
</svg>
