<svg id="Group_11790" data-name="Group 11790" xmlns="http://www.w3.org/2000/svg" width="31.999" height="31.999" viewBox="0 0 31.999 31.999">
  <g id="Group_11789" data-name="Group 11789">
    <path id="Path_1098" data-name="Path 1098" d="M103.468,213.333h-.533a.533.533,0,1,0,0,1.067h.533a.533.533,0,1,0,0-1.067Z" transform="translate(-96.001 -200)"/>
    <path id="Path_1099" data-name="Path 1099" d="M154.668,230.4h-.533a.533.533,0,1,0,0,1.067h.533a.533.533,0,1,0,0-1.067Z" transform="translate(-144.001 -216)"/>
    <path id="Path_1100" data-name="Path 1100" d="M205.868,213.333h-.533a.533.533,0,1,0,0,1.067h.533a.533.533,0,1,0,0-1.067Z" transform="translate(-192.001 -200)"/>
    <path id="Path_1101" data-name="Path 1101" d="M31.466,30.932h-2.5l1.96-12.777A.947.947,0,0,0,30.7,17.4a.96.96,0,0,0-.727-.331h-.457c-.063,0-.123.01-.185.013V15.349a.95.95,0,0,0-.947-.949H26.666V13.333a.533.533,0,0,0-.533-.533H24v-.117a.95.95,0,0,0-.742-.925l.684-5.891h.592a.533.533,0,0,0,.533-.533v-1.6a1.6,1.6,0,0,0-1.6-1.6V1.6a1.6,1.6,0,0,0-1.6-1.6H9.6A1.6,1.6,0,0,0,8,1.6v.533a1.6,1.6,0,0,0-1.6,1.6v1.6a.533.533,0,0,0,.533.533h.592l.558,4.8H6.933a5.873,5.873,0,0,0-5.867,5.867v.533a1.067,1.067,0,0,0,1.067,1.067h.533v1.676A2.114,2.114,0,0,0,1.073,22.02,2.143,2.143,0,0,0,2.667,23.9v1.7H2.133a1.067,1.067,0,0,0-1.067,1.067v1.6a3.721,3.721,0,0,0,1.125,2.667H.533A.533.533,0,1,0,.533,32H31.466a.533.533,0,0,0,0-1.067Zm-4.8-15.466h1.6v1.911a2.58,2.58,0,0,0-1.207,1.329,5.161,5.161,0,0,1-.393.774ZM24,13.866h1.6v6.809a4.572,4.572,0,0,1-1.6.8ZM9.066,1.6A.533.533,0,0,1,9.6,1.067H21.866A.533.533,0,0,1,22.4,1.6v.533H9.066Zm-1.6,3.2V3.733A.533.533,0,0,1,8,3.2H23.466A.533.533,0,0,1,24,3.733V4.8Zm13.866,8h1.6v8.856c-.177.014-.351.033-.533.033a6.249,6.249,0,0,1-1.067-.1V12.8Zm-.117-1.067a.95.95,0,0,0-.79.423,5.8,5.8,0,0,0-3.645-1.483c-.083-.007-.165-.007-.248-.007H9.157L8.6,5.866H22.867l-.681,5.867ZM2.133,17.066v-.533a4.806,4.806,0,0,1,4.8-4.8h9.6c.056,0,.111,0,.188,0A4.764,4.764,0,0,1,19.539,12.8h-.99a.95.95,0,0,0-.949.949v1.184H15.882a.95.95,0,0,0-.949.949v1.184Zm18.133-3.2V21.3a4.363,4.363,0,0,1-1.6-1.108V13.866ZM17.6,16v2.43A2.6,2.6,0,0,0,16,17.167V16Zm-3.482,3.733H12.485a1.067,1.067,0,0,0-.752.311L9.066,22.71,6.4,20.044a1.067,1.067,0,0,0-.752-.311H3.733v-1.6H13.876v.03Zm.165,1.067.325,2.133H10.353L12.487,20.8Zm.49,3.2.559,3.649-.4.4L12.8,25.912a1.066,1.066,0,0,0-.752-.312H3.733V24ZM2.137,21.943a1.046,1.046,0,0,1,.309-.831A1.058,1.058,0,0,1,3.2,20.8H5.644l2.133,2.133H3.291A1.132,1.132,0,0,1,2.137,21.943ZM4.8,30.931a2.67,2.67,0,0,1-2.667-2.666v-1.6h9.91l2.512,2.512a.533.533,0,0,0,.754,0l.22-.22.3,1.973H4.8Zm12.111,0-1.959-12.8h.326a1.581,1.581,0,0,1,1.469.97,5.923,5.923,0,0,0,.974,1.635.491.491,0,0,0,.064.073A5.94,5.94,0,0,0,22.4,22.755,5.762,5.762,0,0,0,28.052,19.1a1.581,1.581,0,0,1,1.465-.97h.329l-1.963,12.8Z"/>
    <path id="Path_1102" data-name="Path 1102" d="M310.132,384a2.933,2.933,0,1,0,2.933,2.933A2.933,2.933,0,0,0,310.132,384Zm0,4.8A1.867,1.867,0,1,1,312,386.933,1.867,1.867,0,0,1,310.132,388.8Z" transform="translate(-287.999 -360.001)"/>
  </g>
</svg>
