<svg id="nachos" xmlns="http://www.w3.org/2000/svg" width="33.198" height="25.15" viewBox="0 0 33.198 25.15">
  <g id="Group_11792" data-name="Group 11792" transform="translate(0 0)">
    <g id="Group_11791" data-name="Group 11791">
      <path id="Path_1103" data-name="Path 1103" d="M32.686,73.776a2.452,2.452,0,0,0-1.679-.967l-2.2-3.817-.35-5.351a1.688,1.688,0,0,0-2.622-1.293l-4.053,2.707a1.7,1.7,0,0,0-.747-.439,1.681,1.681,0,0,0-1.378.215,1.675,1.675,0,0,0-.891-.585l-7.053-1.89a1.688,1.688,0,0,0-2.067,2.067l.177.659-3.2-2.127A1.688,1.688,0,0,0,4,64.253l-.233,3.679-.039-.01a1.688,1.688,0,0,0-2.067,2.067l.752,2.805a2.455,2.455,0,0,0-1.9.983,2.5,2.5,0,0,0-.415,2.2,13.083,13.083,0,0,0,6.758,7.742,3.76,3.76,0,0,0,1.163,2.434,3.806,3.806,0,0,0,2.636,1.058H22.545a3.806,3.806,0,0,0,2.636-1.058,3.76,3.76,0,0,0,1.163-2.433A13.088,13.088,0,0,0,33.1,75.99,2.507,2.507,0,0,0,32.686,73.776ZM27.879,69.4l1.957,3.389H26.455a.5.5,0,1,0-.63,0h-.534l.539-1.951a1.669,1.669,0,0,0-.3-1.5,1.7,1.7,0,0,0-.591-.474l.727-1.259a.682.682,0,0,1,1.181,0L27.878,69.4Zm-1.488-6.218a.682.682,0,0,1,1.059.522l.217,3.323a1.687,1.687,0,0,0-2.874.08l-.942,1.631-.073.017-1.318.342-.2-2.97a1.715,1.715,0,0,0-.021-.175Zm-4.259,7.041h0l1.9-.493a.715.715,0,0,1,.151-.022.685.685,0,0,1,.556.261.665.665,0,0,1,.121.6l-.613,2.219H23.3a.5.5,0,1,0-.63,0H18.29a1.682,1.682,0,0,0-.227-.8l-.355-.615Zm-2.392-4.241,0,0,.457-.306a.667.667,0,0,1,.56-.091.677.677,0,0,1,.5.612l.21,3.161-4.284,1.112-1.156-2Zm-2.456,6.808H8.617a.673.673,0,0,1,.092-.3l3.651-6.324a.682.682,0,0,1,1.181,0l3.651,6.324A.673.673,0,0,1,17.284,72.792ZM10.791,63.5a.675.675,0,0,1,.659-.176l7.053,1.89a.677.677,0,0,1,.309.177l-3.286,2.2-1.114-1.93a1.688,1.688,0,0,0-2.923,0l-.22.38-.182-.121-.472-1.762A.675.675,0,0,1,10.791,63.5Zm-5.786.813a.682.682,0,0,1,1.058-.525l4.7,3.126L9.32,69.42,4.76,68.2ZM2.81,69.07a.675.675,0,0,1,.659-.176l.629.169h0l4.7,1.259-.962,1.667a1.682,1.682,0,0,0-.227.8H3.455l-.821-3.063A.675.675,0,0,1,2.81,69.07Zm29.321,6.646a12.116,12.116,0,0,1-6.3,7.136H11.9a.5.5,0,0,0,0,1.006h13.41A2.827,2.827,0,0,1,22.546,86.2H10.653a2.827,2.827,0,0,1-2.769-2.347H9.892a.5.5,0,0,0,0-1.006H7.366a12.111,12.111,0,0,1-6.3-7.147,1.5,1.5,0,0,1,.249-1.321,1.458,1.458,0,0,1,1.17-.586H30.716a1.454,1.454,0,0,1,1.167.585A1.51,1.51,0,0,1,32.132,75.716Z" transform="translate(0 -62.061)"/>
    </g>
  </g>
  <g id="Group_11794" data-name="Group 11794" transform="translate(22.821 5.041)">
    <g id="Group_11793" data-name="Group 11793">
      <circle id="Ellipse_11" data-name="Ellipse 11" cx="0.503" cy="0.503" r="0.503"/>
    </g>
  </g>
  <g id="Group_11796" data-name="Group 11796" transform="translate(24.028 3.13)">
    <g id="Group_11795" data-name="Group 11795">
      <circle id="Ellipse_12" data-name="Ellipse 12" cx="0.503" cy="0.503" r="0.503"/>
    </g>
  </g>
  <g id="Group_11798" data-name="Group 11798" transform="translate(25.906 2.191)">
    <g id="Group_11797" data-name="Group 11797">
      <circle id="Ellipse_13" data-name="Ellipse 13" cx="0.503" cy="0.503" r="0.503"/>
    </g>
  </g>
  <g id="Group_11800" data-name="Group 11800" transform="translate(10.95 1.721)">
    <g id="Group_11799" data-name="Group 11799">
      <circle id="Ellipse_14" data-name="Ellipse 14" cx="0.503" cy="0.503" r="0.503"/>
    </g>
  </g>
  <g id="Group_11802" data-name="Group 11802" transform="translate(15.242 3.331)">
    <g id="Group_11801" data-name="Group 11801">
      <circle id="Ellipse_15" data-name="Ellipse 15" cx="0.503" cy="0.503" r="0.503"/>
    </g>
  </g>
  <g id="Group_11804" data-name="Group 11804" transform="translate(17.59 6.885)">
    <g id="Group_11803" data-name="Group 11803">
      <circle id="Ellipse_16" data-name="Ellipse 16" cx="0.503" cy="0.503" r="0.503"/>
    </g>
  </g>
  <g id="Group_11806" data-name="Group 11806" transform="translate(19.602 6.215)">
    <g id="Group_11805" data-name="Group 11805">
      <circle id="Ellipse_17" data-name="Ellipse 17" cx="0.503" cy="0.503" r="0.503"/>
    </g>
  </g>
  <g id="Group_11808" data-name="Group 11808" transform="translate(18.126 5.343)">
    <g id="Group_11807" data-name="Group 11807">
      <circle id="Ellipse_18" data-name="Ellipse 18" cx="0.503" cy="0.503" r="0.503"/>
    </g>
  </g>
  <g id="Group_11810" data-name="Group 11810" transform="translate(7.6 5.679)">
    <g id="Group_11809" data-name="Group 11809">
      <circle id="Ellipse_19" data-name="Ellipse 19" cx="0.503" cy="0.503" r="0.503"/>
    </g>
  </g>
  <g id="Group_11812" data-name="Group 11812" transform="translate(5.586 4.949)">
    <g id="Group_11811" data-name="Group 11811">
      <circle id="Ellipse_20" data-name="Ellipse 20" cx="0.503" cy="0.503" r="0.503"/>
    </g>
  </g>
  <g id="Group_11814" data-name="Group 11814" transform="translate(5.578 3.138)">
    <g id="Group_11813" data-name="Group 11813">
      <circle id="Ellipse_21" data-name="Ellipse 21" cx="0.503" cy="0.503" r="0.503"/>
    </g>
  </g>
  <g id="Group_11816" data-name="Group 11816" transform="translate(7.593 4.137)">
    <g id="Group_11815" data-name="Group 11815">
      <circle id="Ellipse_22" data-name="Ellipse 22" cx="0.503" cy="0.503" r="0.503"/>
    </g>
  </g>
  <g id="Group_11818" data-name="Group 11818" transform="translate(6.725 9.166)">
    <g id="Group_11817" data-name="Group 11817">
      <circle id="Ellipse_23" data-name="Ellipse 23" cx="0.503" cy="0.503" r="0.503"/>
    </g>
  </g>
  <g id="Group_11820" data-name="Group 11820" transform="translate(5.384 7.824)">
    <g id="Group_11819" data-name="Group 11819">
      <circle id="Ellipse_24" data-name="Ellipse 24" cx="0.503" cy="0.503" r="0.503"/>
    </g>
  </g>
  <g id="Group_11822" data-name="Group 11822" transform="translate(27.18 8.763)">
    <g id="Group_11821" data-name="Group 11821">
      <circle id="Ellipse_25" data-name="Ellipse 25" cx="0.503" cy="0.503" r="0.503"/>
    </g>
  </g>
  <g id="Group_11824" data-name="Group 11824" transform="translate(25.906 7.154)">
    <g id="Group_11823" data-name="Group 11823">
      <circle id="Ellipse_26" data-name="Ellipse 26" cx="0.503" cy="0.503" r="0.503"/>
    </g>
  </g>
  <g id="Group_11826" data-name="Group 11826" transform="translate(19.132 9.434)">
    <g id="Group_11825" data-name="Group 11825">
      <circle id="Ellipse_27" data-name="Ellipse 27" cx="0.503" cy="0.503" r="0.503"/>
    </g>
  </g>
  <g id="Group_11828" data-name="Group 11828" transform="translate(21.144 8.696)">
    <g id="Group_11827" data-name="Group 11827">
      <circle id="Ellipse_28" data-name="Ellipse 28" cx="0.503" cy="0.503" r="0.503"/>
    </g>
  </g>
  <g id="Group_11830" data-name="Group 11830" transform="translate(10.749 8.092)">
    <g id="Group_11829" data-name="Group 11829">
      <circle id="Ellipse_29" data-name="Ellipse 29" cx="0.503" cy="0.503" r="0.503"/>
    </g>
  </g>
  <g id="Group_11832" data-name="Group 11832" transform="translate(12.359 5.544)">
    <g id="Group_11831" data-name="Group 11831">
      <circle id="Ellipse_30" data-name="Ellipse 30" cx="0.503" cy="0.503" r="0.503"/>
    </g>
  </g>
  <g id="Group_11834" data-name="Group 11834" transform="translate(12.761 9.434)">
    <g id="Group_11833" data-name="Group 11833">
      <circle id="Ellipse_31" data-name="Ellipse 31" cx="0.503" cy="0.503" r="0.503"/>
    </g>
  </g>
  <g id="Group_11836" data-name="Group 11836" transform="translate(13.432 7.422)">
    <g id="Group_11835" data-name="Group 11835">
      <circle id="Ellipse_32" data-name="Ellipse 32" cx="0.503" cy="0.503" r="0.503"/>
    </g>
  </g>
  <g id="Group_11838" data-name="Group 11838" transform="translate(14.773 9.434)">
    <g id="Group_11837" data-name="Group 11837">
      <circle id="Ellipse_33" data-name="Ellipse 33" cx="0.503" cy="0.503" r="0.503"/>
    </g>
  </g>
</svg>
