<svg xmlns="http://www.w3.org/2000/svg" width="182.838" height="237.464" viewBox="0 0 182.838 237.464"><g transform="translate(0 0)"><path d="M65.335-30c42.961,0,65.335,49.883,65.335,85.967s-16.184,85.967-65.335,85.967S0,92.05,0,55.967,22.374-30,65.335-30Z" transform="translate(26.549 95.531)" fill="#ffbe27"/><g transform="translate(0 98.653)"><path d="M8.217,35.456c19.549-8.588,39.7-16.09,58.858-25.531q-3.941-1.6-7.881-3.207a297.4,297.4,0,0,1,8.944,33.513c.878,4.276,6.122,4.762,8.967,2.368a194.455,194.455,0,0,1,27.427-19.254l-7.881-3.207q2.21,11.3,4.419,22.6c.69,3.534,5.045,4.737,7.881,3.207,11.231-6.059,21.951-12.9,32.937-19.379,5.943-3.507.551-12.785-5.417-9.266-10.984,6.478-21.7,13.322-32.935,19.379l7.881,3.207q-2.21-11.3-4.419-22.6c-.674-3.448-5.075-4.843-7.881-3.207a210.382,210.382,0,0,0-29.6,20.931l8.967,2.368A297.787,297.787,0,0,0,69.541,3.866,5.456,5.456,0,0,0,61.659.66C42.5,10.1,22.349,17.6,2.8,26.191c-6.308,2.772-.853,12.02,5.415,9.266" transform="matrix(0.966, -0.259, 0.259, 0.966, 0, 88.799)" fill="#b87742"/><path d="M8.217,35.456c19.549-8.588,39.7-16.09,58.858-25.531q-3.941-1.6-7.881-3.207a297.4,297.4,0,0,1,8.944,33.513c.878,4.276,6.122,4.762,8.967,2.368a194.455,194.455,0,0,1,27.427-19.254l-7.881-3.207q2.21,11.3,4.419,22.6c.69,3.534,5.045,4.737,7.881,3.207,11.231-6.059,21.951-12.9,32.937-19.379,5.943-3.507.551-12.785-5.417-9.266-10.984,6.478-21.7,13.322-32.935,19.379l7.881,3.207q-2.21-11.3-4.419-22.6c-.674-3.448-5.075-4.843-7.881-3.207a210.381,210.381,0,0,0-29.6,20.931l8.967,2.368A297.784,297.784,0,0,0,69.541,3.866,5.456,5.456,0,0,0,61.659.66C42.5,10.1,22.349,17.6,2.8,26.191c-6.308,2.772-.853,12.02,5.415,9.266" transform="matrix(-0.966, 0.259, -0.259, -0.966, 182.838, 45.01)" fill="#b87742"/></g><g transform="translate(35.475)"><path d="M3028.717-8415.117c18.534-.184,7.448,37.572,10.33,65.689-.148.1,4.676-13.609,9.3-25.291s10.779-22.4,17.053-17.635-8.208,33.8-15.928,45.736c-.082.111,24.463-22.125,33.416-18.393s-11.672,27.453-15.58,31.164-26.355,27.342-38.586,27.686C3028.721-8306.16,3028.706-8415.107,3028.717-8415.117Z" transform="translate(-2972.305 8415.118)" fill="#006227"/><path d="M3085.168-8415.109c-18.533-.182-7.5,37.566-10.378,65.68.146.107-4.677-13.6-9.3-25.287s-10.779-22.4-17.054-17.635,8.209,33.8,15.931,45.736c.08.111-24.464-22.125-33.418-18.393s11.672,27.453,15.58,31.164,26.4,27.338,38.627,27.682C3085.156-8306.162,3085.179-8415.1,3085.168-8415.109Z" transform="translate(-3028.714 8415.117)" fill="#006227"/></g><g transform="translate(69.501 63.79)"><path d="M3028.714-8415.117c5.963-.061,3.137,11.428,4.063,20.441-.046.031,5.406-15.742,9.54-13.977s-3.607,13.2-6.091,17.031c-.025.035,10.857-10.281,14.392-7.355s-13.413,22.531-21.9,22.477C3028.714-8376.5,3028.711-8415.115,3028.714-8415.117Z" transform="translate(-3006.331 8415.117)" fill="#072613"/><path d="M3051.095-8415.117c-5.962-.061-3.136,11.428-4.062,20.441.046.031-5.406-15.742-9.541-13.977s3.607,13.2,6.092,17.031c.025.035-10.857-10.281-14.393-7.355s13.467,22.537,21.954,22.48C3051.146-8376.5,3051.1-8415.115,3051.095-8415.117Z" transform="translate(-3028.715 8415.117)" fill="#072613"/></g></g></svg>