<svg xmlns="http://www.w3.org/2000/svg" width="320" height="320" viewBox="0 0 320 320"><g transform="translate(-28 -331)"><path d="M-67-2553h-39v-4h39a35.765,35.765,0,0,0,14.012-2.828,35.879,35.879,0,0,0,11.444-7.717,35.9,35.9,0,0,0,7.717-11.444A35.777,35.777,0,0,0-31-2593v-19h4v19a39.751,39.751,0,0,1-3.143,15.57,39.866,39.866,0,0,1-8.572,12.714,39.869,39.869,0,0,1-12.715,8.572A39.753,39.753,0,0,1-67-2553Zm-200,0h-40a39.753,39.753,0,0,1-15.57-3.143,39.871,39.871,0,0,1-12.715-8.572,39.868,39.868,0,0,1-8.572-12.714A39.751,39.751,0,0,1-347-2593v-19h4v19a35.777,35.777,0,0,0,2.827,14.011,35.89,35.89,0,0,0,7.717,11.444,35.871,35.871,0,0,0,11.444,7.717A35.764,35.764,0,0,0-307-2557h40v4Zm240-261h-4v-19a35.775,35.775,0,0,0-2.827-14.011,35.906,35.906,0,0,0-7.717-11.445,35.881,35.881,0,0,0-11.444-7.717A35.765,35.765,0,0,0-67-2869h-40v-4h40a39.753,39.753,0,0,1,15.57,3.143,39.867,39.867,0,0,1,12.715,8.572,39.866,39.866,0,0,1,8.572,12.714A39.748,39.748,0,0,1-27-2833v19Zm-316,0h-4v-19a39.748,39.748,0,0,1,3.143-15.57,39.868,39.868,0,0,1,8.572-12.714,39.865,39.865,0,0,1,12.715-8.572A39.753,39.753,0,0,1-307-2873h39v4h-39a35.764,35.764,0,0,0-14.012,2.828,35.87,35.87,0,0,0-11.444,7.717,35.89,35.89,0,0,0-7.717,11.445A35.775,35.775,0,0,0-343-2833v19Z" transform="translate(375 3204)" fill="#ffc72c"/><g transform="translate(-98.981 279.141)"><g transform="translate(201.273 70.448)"><path d="M352.822,363.268H248.154a19.631,19.631,0,0,1-19.838-21.327l17.5-250.175A23.208,23.208,0,0,1,268.644,70.45H373.312A19.62,19.62,0,0,1,393.15,91.766l-17.5,250.175A23.218,23.218,0,0,1,352.822,363.268Z" transform="translate(-222.807 -70.448)" fill="#ffc72c"/><path d="M347.822,363.268H243.154a19.631,19.631,0,0,1-19.838-21.327l17.5-250.175A23.208,23.208,0,0,1,263.644,70.45H368.312A19.62,19.62,0,0,1,388.15,91.766l-17.5,250.175A23.218,23.218,0,0,1,347.822,363.268Z" transform="translate(-223.242 -70.448)" fill="#263238"/><path d="M367.552,75H340.376a3.87,3.87,0,0,0-3.728,3.087l-.163.859a9.435,9.435,0,0,1-9.109,7.544H301.483a7.935,7.935,0,0,1-8.055-7.544v-.859A3.261,3.261,0,0,0,290.167,75H262.992a17.892,17.892,0,0,0-17.577,16.425L227.915,341.6A15.131,15.131,0,0,0,243.2,358.035H347.866A17.892,17.892,0,0,0,365.443,341.6l17.5-250.175A15.12,15.12,0,0,0,367.552,75Z" transform="translate(-222.841 -70.052)" fill="#ffc72c"/><path d="M382.843,91.381l-17.49,250.175a17.9,17.9,0,0,1-17.588,16.425H243.1a15.1,15.1,0,0,1-15.272-16.425l17.49-250.175A17.892,17.892,0,0,1,262.892,75h27.175a3.261,3.261,0,0,1,3.261,3.1v.848a7.957,7.957,0,0,0,8.055,7.609h25.86a9.413,9.413,0,0,0,9.1-7.609l.174-.848a3.87,3.87,0,0,1,3.848-3.1h27.175a15.131,15.131,0,0,1,15.305,16.381Z" transform="translate(-222.849 -70.052)" fill="#fff" opacity="0.8"/><path d="M367.451,292.56l-2.1,30.067a17.9,17.9,0,0,1-17.588,16.425H243.1a15.1,15.1,0,0,1-15.272-16.425l2.1-30.067Z" transform="translate(-222.849 -51.123)" fill="#263238"/><path d="M367.451,292.56l-2.1,30.067a17.9,17.9,0,0,1-17.588,16.425H243.1a15.1,15.1,0,0,1-15.272-16.425l2.1-30.067Z" transform="translate(-222.849 -51.123)" fill="#fff" opacity="0.5"/><g transform="translate(81.732 5.589)" opacity="0.7"><path d="M302.549,77.666a2.25,2.25,0,0,1-2.174,2.076,1.9,1.9,0,0,1-1.935-2.076,2.25,2.25,0,0,1,2.174-2.076,1.9,1.9,0,0,1,1.935,2.076Z" transform="translate(-298.433 -75.59)"/><path d="M316.67,75.59h-7.131a2.261,2.261,0,0,0-2.228,2.076,1.913,1.913,0,0,0,1.935,2.076h7.131a2.25,2.25,0,0,0,2.174-2.076,1.9,1.9,0,0,0-1.881-2.076Z" transform="translate(-297.661 -75.59)"/></g><path d="M254.71,85.667h2.2l.152-2.207h-2.2Z" transform="translate(-220.504 -69.316)" fill="#ffc72c"/><path d="M258.912,83.636l-.152,2.207h2.2l.163-2.207.152-2.2h-2.207Z" transform="translate(-220.152 -69.492)" fill="#ffc72c"/><path d="M263.267,79.41l-.152,2.207-.152,2.2-.152,2.207h2.2l.163-2.207.152-2.2.152-2.207Z" transform="translate(-219.8 -69.668)" fill="#ffc72c"/><path d="M350.413,79.55l-.109,1.576h-1.087L349,84.387h1.087l-.109,1.62h9.685l.446-6.457Zm4.022,4.837h-3.261l.228-3.261h3.261Z" transform="translate(-212.3 -69.656)" fill="#ffc72c"/><path d="M260.577,196.081h-.739a.837.837,0,0,1-.848-.913l1.087-15.577a6.022,6.022,0,0,1,5.913-5.511h15.566a.837.837,0,0,1,.848.913v.728a.978.978,0,0,1-.978.913h-15.62a3.261,3.261,0,0,0-3.163,2.957l-1.087,15.577A1,1,0,0,1,260.577,196.081Z" transform="translate(-220.132 -61.431)" fill="#ffc72c"/><path d="M314.77,255.149l.054-.739a.989.989,0,0,1,.967-.913h15.533a3.261,3.261,0,0,0,3.174-2.957l1.087-15.577a.989.989,0,0,1,.978-.913h.728a.848.848,0,0,1,.859.913l-1.087,15.577a6.011,6.011,0,0,1-5.9,5.522H315.618a.848.848,0,0,1-.848-.913Z" transform="translate(-215.279 -56.213)" fill="#ffc72c"/><path d="M339.884,196.081h-.739a.837.837,0,0,1-.848-.913l1.087-15.457a2.946,2.946,0,0,0-.391-1.772,2.717,2.717,0,0,0-2.359-1.294H321.068a.848.848,0,0,1-.848-.913l.054-.739a.989.989,0,0,1,.978-.913h15.359a5.435,5.435,0,0,1,3.652,1.283,5.076,5.076,0,0,1,1.7,4.239l-1.087,15.566A1,1,0,0,1,339.884,196.081Z" transform="translate(-214.805 -61.431)" fill="#ffc72c"/><path d="M260.222,256.062a5.1,5.1,0,0,1-4.109-1.989,5.435,5.435,0,0,1-1.011-3.739l1.087-15.37a1,1,0,0,1,.978-.913h.739a.848.848,0,0,1,.848.913l-1.087,15.479a2.891,2.891,0,0,0,.391,1.761,2.718,2.718,0,0,0,2.348,1.294h15.566a.848.848,0,0,1,.859.913v.739a1,1,0,0,1-.978.913Z" transform="translate(-220.473 -56.213)" fill="#ffc72c"/><path d="M274.206,275.335a3.337,3.337,0,0,1-2.544,1.087c-1.359,0-2.272-.489-3.576-1.978a4.283,4.283,0,0,1-3.935-4.685,5.131,5.131,0,0,1,5.315-4.718,4.348,4.348,0,0,1,4.663,4.718,5.011,5.011,0,0,1-3.565,4.468,1.533,1.533,0,0,0,1.239.63,2.109,2.109,0,0,0,1.533-.674Zm-5.272-2.62A3.033,3.033,0,0,0,272,269.791a2.565,2.565,0,0,0-2.652-2.913,3.033,3.033,0,0,0-3.065,2.913,2.565,2.565,0,0,0,2.652,2.924Z" transform="translate(-219.685 -53.518)" fill="#263238"/><path d="M280.326,274.34l-1.587-2.544h-1.946l-.174,2.544H274.51l.641-9.12H279.1c2.435,0,3.87,1.261,3.728,3.261a3.261,3.261,0,0,1-2.076,2.881l1.837,2.935Zm-1.467-7.4h-1.717l-.228,3.185h1.728c1.283,0,1.978-.609,2.054-1.6s-.543-1.587-1.837-1.587Z" transform="translate(-218.782 -53.501)" fill="#263238"/><path d="M286.491,269.788a5.1,5.1,0,0,1,5.283-4.718,4.348,4.348,0,0,1,3.641,1.62l-1.446,1.25a2.706,2.706,0,0,0-2.174-1.087,3.033,3.033,0,0,0-3.12,2.913,2.576,2.576,0,0,0,2.718,2.924,3.141,3.141,0,0,0,2.37-1.087l1.261,1.25a5.044,5.044,0,0,1-3.881,1.63,4.348,4.348,0,0,1-4.652-4.7Z" transform="translate(-217.74 -53.515)" fill="#263238"/><path d="M295.111,269.789a5.131,5.131,0,0,1,5.315-4.718,4.348,4.348,0,0,1,4.663,4.718,5.13,5.13,0,0,1-5.315,4.728,4.348,4.348,0,0,1-4.663-4.728Zm7.848,0a2.565,2.565,0,0,0-2.652-2.913,3.033,3.033,0,0,0-3.065,2.913,2.565,2.565,0,0,0,2.652,2.924,3.033,3.033,0,0,0,3.065-2.924Z" transform="translate(-216.991 -53.515)" fill="#263238"/><path d="M306.1,265.22h4.152c2.978,0,4.9,1.794,4.707,4.555s-2.359,4.565-5.348,4.565H305.47Zm3.533,7.392a2.968,2.968,0,0,0,3.2-2.837,2.522,2.522,0,0,0-2.8-2.826H308.1l-.4,5.663Z" transform="translate(-216.088 -53.501)" fill="#263238"/><path d="M322.575,272.644l-.12,1.7H315.39l.641-9.12h6.892l-.12,1.7H318.01l-.141,1.978h4.239l-.12,1.641h-4.239l-.141,2.109Z" transform="translate(-215.225 -53.501)" fill="#263238"/><path d="M377.958,143.951H240.06l3.25-46.491h137.9Z" transform="translate(-221.779 -68.098)" fill="#ffc72c"/><path d="M228.084,340.751a15.283,15.283,0,0,0,4.12,11.729L378.711,78.554a15.218,15.218,0,0,0-10.87-4.424H263.162a17.914,17.914,0,0,0-17.577,16.436Z" transform="translate(-222.825 -70.128)" fill="#fff" opacity="0.2"/><rect width="30.088" height="1.087" transform="translate(53.39 67.593) rotate(-86.02)" fill="#e0e0e0"/><rect width="30.088" height="1.087" transform="translate(87.778 67.589) rotate(-86.02)" fill="#e0e0e0"/><rect width="30.088" height="1.087" transform="matrix(0.069, -0.998, 0.998, 0.069, 122.115, 67.569)" fill="#e0e0e0"/></g><g transform="translate(243.251 189.988)"><path d="M266.566,180.42l-.2,2.913h2.913l.207-2.913Z" transform="translate(-261.468 -180.42)" fill="#263238"/><path d="M269.257,180.42l-.207,2.913h2.924l.2-2.913Z" transform="translate(-261.234 -180.42)" fill="#263238"/><path d="M271.936,180.42l-.2,2.913h2.913l.206-2.913Z" transform="translate(-261 -180.42)" fill="#263238"/><path d="M274.627,180.42l-.207,2.913h2.924l.2-2.913Z" transform="translate(-260.767 -180.42)" fill="#263238"/><path d="M277.306,180.42l-.2,2.913h2.913l.207-2.913Z" transform="translate(-260.533 -180.42)" fill="#263238"/><path d="M280,180.42l-.207,2.913h2.924l.206-2.913Z" transform="translate(-260.3 -180.42)" fill="#263238"/><path d="M282.687,180.42l-.207,2.913h2.913l.207-2.913Z" transform="translate(-260.066 -180.42)" fill="#263238"/><path d="M293.427,180.42l-.207,2.913h2.913l.207-2.913Z" transform="translate(-259.131 -180.42)" fill="#263238"/><path d="M301.477,180.42l-.207,2.913h2.924l.207-2.913Z" transform="translate(-258.431 -180.42)" fill="#263238"/><path d="M304.167,180.42l-.207,2.913h2.913l.207-2.913Z" transform="translate(-258.197 -180.42)" fill="#263238"/><path d="M306.846,180.42l-.206,2.913h2.924l.207-2.913Z" transform="translate(-257.964 -180.42)" fill="#263238"/><path d="M309.536,180.42l-.207,2.913h2.913l.207-2.913Z" transform="translate(-257.73 -180.42)" fill="#263238"/><path d="M314.906,180.42l-.206,2.913h2.913l.207-2.913Z" transform="translate(-257.263 -180.42)" fill="#263238"/><path d="M317.587,180.42l-.207,2.913H320.3l.207-2.913Z" transform="translate(-257.029 -180.42)" fill="#263238"/><path d="M320.277,180.42l-.207,2.913h2.924l.2-2.913Z" transform="translate(-256.795 -180.42)" fill="#263238"/><path d="M322.956,180.42l-.2,2.913h2.913l.207-2.913Z" transform="translate(-256.561 -180.42)" fill="#263238"/><path d="M325.646,180.42l-.206,2.913h2.924l.2-2.913Z" transform="translate(-256.328 -180.42)" fill="#263238"/><path d="M328.326,180.42l-.2,2.913h2.913l.207-2.913Z" transform="translate(-256.094 -180.42)" fill="#263238"/><path d="M331.017,180.42l-.207,2.913h2.924l.206-2.913Z" transform="translate(-255.861 -180.42)" fill="#263238"/><path d="M266.387,183.1l-.207,2.924h2.913l.207-2.924Z" transform="translate(-261.484 -180.187)" fill="#263238"/><path d="M282.5,183.1l-.207,2.924H285.2l.207-2.924Z" transform="translate(-260.082 -180.187)" fill="#263238"/><path d="M290.546,183.1l-.2,2.924h2.913l.207-2.924Z" transform="translate(-259.381 -180.187)" fill="#263238"/><path d="M303.977,183.1l-.207,2.924h2.924l.2-2.924Z" transform="translate(-258.214 -180.187)" fill="#263238"/><path d="M306.656,183.1l-.2,2.924h2.913l.206-2.924Z" transform="translate(-257.979 -180.187)" fill="#263238"/><path d="M309.347,183.1l-.207,2.924h2.924l.2-2.924Z" transform="translate(-257.746 -180.187)" fill="#263238"/><path d="M314.717,183.1l-.207,2.924h2.924l.2-2.924Z" transform="translate(-257.279 -180.187)" fill="#263238"/><path d="M330.827,183.1l-.207,2.924h2.924l.207-2.924Z" transform="translate(-255.877 -180.187)" fill="#263238"/><path d="M266.2,185.79l-.207,2.913h2.924l.2-2.913Z" transform="translate(-261.501 -179.953)" fill="#263238"/><path d="M271.567,185.79l-.207,2.913h2.924l.2-2.913Z" transform="translate(-261.033 -179.953)" fill="#263238"/><path d="M274.246,185.79l-.2,2.913h2.913l.206-2.913Z" transform="translate(-260.799 -179.953)" fill="#263238"/><path d="M276.937,185.79l-.207,2.913h2.924l.2-2.913Z" transform="translate(-260.566 -179.953)" fill="#263238"/><path d="M282.307,185.79,282.1,188.7h2.924l.2-2.913Z" transform="translate(-260.099 -179.953)" fill="#263238"/><path d="M287.677,185.79l-.207,2.913h2.924l.207-2.913Z" transform="translate(-259.632 -179.953)" fill="#263238"/><path d="M295.736,185.79l-.206,2.913h2.913l.207-2.913Z" transform="translate(-258.93 -179.953)" fill="#263238"/><path d="M303.786,185.79l-.207,2.913H306.5l.207-2.913Z" transform="translate(-258.23 -179.953)" fill="#263238"/><path d="M314.527,185.79l-.207,2.913h2.924l.207-2.913Z" transform="translate(-257.296 -179.953)" fill="#263238"/><path d="M319.9,185.79l-.207,2.913h2.924l.207-2.913Z" transform="translate(-256.828 -179.953)" fill="#263238"/><path d="M322.587,185.79l-.207,2.913H325.3l.2-2.913Z" transform="translate(-256.594 -179.953)" fill="#263238"/><path d="M325.266,185.79l-.2,2.913h2.913l.207-2.913Z" transform="translate(-256.36 -179.953)" fill="#263238"/><path d="M330.636,185.79l-.2,2.913h2.913l.206-2.913Z" transform="translate(-255.893 -179.953)" fill="#263238"/><path d="M266.007,188.47l-.207,2.924h2.924l.207-2.924Z" transform="translate(-261.517 -179.72)" fill="#263238"/><path d="M271.377,188.47l-.207,2.924h2.924l.207-2.924Z" transform="translate(-261.05 -179.72)" fill="#263238"/><path d="M274.067,188.47l-.207,2.924h2.913l.207-2.924Z" transform="translate(-260.816 -179.72)" fill="#263238"/><path d="M276.747,188.47l-.207,2.924h2.924l.207-2.924Z" transform="translate(-260.583 -179.72)" fill="#263238"/><path d="M282.117,188.47l-.207,2.924h2.924l.207-2.924Z" transform="translate(-260.115 -179.72)" fill="#263238"/><path d="M290.177,188.47l-.207,2.924h2.913l.207-2.924Z" transform="translate(-259.414 -179.72)" fill="#263238"/><path d="M303.6,188.47l-.2,2.924h2.913l.207-2.924Z" transform="translate(-258.246 -179.72)" fill="#263238"/><path d="M306.287,188.47l-.207,2.924H309l.2-2.924Z" transform="translate(-258.013 -179.72)" fill="#263238"/><path d="M314.336,188.47l-.2,2.924h2.913l.207-2.924Z" transform="translate(-257.311 -179.72)" fill="#263238"/><path d="M319.706,188.47l-.2,2.924h2.913l.207-2.924Z" transform="translate(-256.844 -179.72)" fill="#263238"/><path d="M322.4,188.47l-.207,2.924h2.924l.207-2.924Z" transform="translate(-256.611 -179.72)" fill="#263238"/><path d="M325.087,188.47l-.207,2.924h2.913L328,188.47Z" transform="translate(-256.377 -179.72)" fill="#263238"/><path d="M330.457,188.47l-.207,2.924h2.913l.207-2.924Z" transform="translate(-255.91 -179.72)" fill="#263238"/><path d="M265.816,191.16l-.207,2.913h2.924l.207-2.913Z" transform="translate(-261.534 -179.486)" fill="#263238"/><path d="M271.186,191.16l-.2,2.913H273.9l.206-2.913Z" transform="translate(-261.066 -179.486)" fill="#263238"/><path d="M273.877,191.16l-.207,2.913h2.924l.2-2.913Z" transform="translate(-260.832 -179.486)" fill="#263238"/><path d="M276.556,191.16l-.2,2.913h2.913l.207-2.913Z" transform="translate(-260.598 -179.486)" fill="#263238"/><path d="M281.926,191.16l-.2,2.913h2.913l.207-2.913Z" transform="translate(-260.131 -179.486)" fill="#263238"/><path d="M289.987,191.16l-.207,2.913H292.7l.2-2.913Z" transform="translate(-259.431 -179.486)" fill="#263238"/><path d="M298.036,191.16l-.2,2.913h2.913l.207-2.913Z" transform="translate(-258.729 -179.486)" fill="#263238"/><path d="M300.727,191.16l-.207,2.913h2.924l.207-2.913Z" transform="translate(-258.496 -179.486)" fill="#263238"/><path d="M303.417,191.16l-.207,2.913h2.913l.207-2.913Z" transform="translate(-258.262 -179.486)" fill="#263238"/><path d="M306.1,191.16l-.207,2.913h2.924l.207-2.913Z" transform="translate(-258.029 -179.486)" fill="#263238"/><path d="M314.156,191.16l-.206,2.913h2.913l.207-2.913Z" transform="translate(-257.328 -179.486)" fill="#263238"/><path d="M319.527,191.16l-.207,2.913h2.913l.207-2.913Z" transform="translate(-256.861 -179.486)" fill="#263238"/><path d="M322.207,191.16,322,194.073h2.924l.207-2.913Z" transform="translate(-256.627 -179.486)" fill="#263238"/><path d="M324.9,191.16l-.207,2.913h2.924l.2-2.913Z" transform="translate(-256.393 -179.486)" fill="#263238"/><path d="M330.267,191.16l-.207,2.913h2.924l.2-2.913Z" transform="translate(-255.926 -179.486)" fill="#263238"/><path d="M265.626,193.84l-.2,2.924h2.913l.207-2.924Z" transform="translate(-261.549 -179.252)" fill="#263238"/><path d="M281.747,193.84l-.207,2.924h2.913l.207-2.924Z" transform="translate(-260.148 -179.252)" fill="#263238"/><path d="M292.487,193.84l-.207,2.924h2.913l.207-2.924Z" transform="translate(-259.213 -179.252)" fill="#263238"/><path d="M295.167,193.84l-.207,2.924h2.924l.207-2.924Z" transform="translate(-258.98 -179.252)" fill="#263238"/><path d="M300.537,193.84l-.207,2.924h2.924l.207-2.924Z" transform="translate(-258.513 -179.252)" fill="#263238"/><path d="M303.227,193.84l-.207,2.924h2.913l.207-2.924Z" transform="translate(-258.279 -179.252)" fill="#263238"/><path d="M305.907,193.84l-.207,2.924h2.924l.207-2.924Z" transform="translate(-258.046 -179.252)" fill="#263238"/><path d="M308.6,193.84l-.207,2.924h2.924l.2-2.924Z" transform="translate(-257.812 -179.252)" fill="#263238"/><path d="M313.967,193.84l-.207,2.924h2.924l.2-2.924Z" transform="translate(-257.344 -179.252)" fill="#263238"/><path d="M330.076,193.84l-.206,2.924h2.924L333,193.84Z" transform="translate(-255.943 -179.252)" fill="#263238"/><path d="M265.447,196.53l-.207,2.924h2.913l.207-2.924Z" transform="translate(-261.566 -179.018)" fill="#263238"/><path d="M268.126,196.53l-.206,2.924h2.924l.207-2.924Z" transform="translate(-261.333 -179.018)" fill="#263238"/><path d="M270.817,196.53l-.207,2.924h2.913l.207-2.924Z" transform="translate(-261.099 -179.018)" fill="#263238"/><path d="M273.5,196.53l-.207,2.924h2.924l.207-2.924Z" transform="translate(-260.865 -179.018)" fill="#263238"/><path d="M276.187,196.53l-.207,2.924H278.9l.2-2.924Z" transform="translate(-260.631 -179.018)" fill="#263238"/><path d="M278.866,196.53l-.2,2.924h2.913l.207-2.924Z" transform="translate(-260.397 -179.018)" fill="#263238"/><path d="M281.557,196.53l-.207,2.924h2.924l.2-2.924Z" transform="translate(-260.164 -179.018)" fill="#263238"/><path d="M286.927,196.53l-.207,2.924h2.924l.2-2.924Z" transform="translate(-259.697 -179.018)" fill="#263238"/><path d="M292.3,196.53l-.207,2.924h2.924l.2-2.924Z" transform="translate(-259.23 -179.018)" fill="#263238"/><path d="M297.667,196.53l-.207,2.924h2.924l.2-2.924Z" transform="translate(-258.762 -179.018)" fill="#263238"/><path d="M303.037,196.53l-.207,2.924h2.924l.2-2.924Z" transform="translate(-258.295 -179.018)" fill="#263238"/><path d="M308.406,196.53l-.206,2.924h2.924l.206-2.924Z" transform="translate(-257.828 -179.018)" fill="#263238"/><path d="M313.777,196.53l-.207,2.924h2.924l.207-2.924Z" transform="translate(-257.361 -179.018)" fill="#263238"/><path d="M316.467,196.53l-.207,2.924h2.913l.207-2.924Z" transform="translate(-257.127 -179.018)" fill="#263238"/><path d="M319.147,196.53l-.207,2.924h2.924l.207-2.924Z" transform="translate(-256.894 -179.018)" fill="#263238"/><path d="M321.837,196.53l-.207,2.924h2.913l.207-2.924Z" transform="translate(-256.66 -179.018)" fill="#263238"/><path d="M324.517,196.53l-.207,2.924h2.924l.207-2.924Z" transform="translate(-256.426 -179.018)" fill="#263238"/><path d="M327.207,196.53,327,199.454h2.924l.2-2.924Z" transform="translate(-256.192 -179.018)" fill="#263238"/><path d="M329.886,196.53l-.2,2.924H332.6l.206-2.924Z" transform="translate(-255.958 -179.018)" fill="#263238"/><path d="M286.737,199.22l-.207,2.913h2.924l.207-2.913Z" transform="translate(-259.714 -178.784)" fill="#263238"/><path d="M297.477,199.22l-.207,2.913h2.924l.207-2.913Z" transform="translate(-258.779 -178.784)" fill="#263238"/><path d="M300.167,199.22l-.207,2.913h2.913l.207-2.913Z" transform="translate(-258.545 -178.784)" fill="#263238"/><path d="M308.217,199.22l-.207,2.913h2.924l.207-2.913Z" transform="translate(-257.845 -178.784)" fill="#263238"/><path d="M265.066,201.9l-.207,2.924h2.924l.207-2.924Z" transform="translate(-261.599 -178.551)" fill="#263238"/><path d="M267.757,201.9l-.207,2.924h2.913l.207-2.924Z" transform="translate(-261.365 -178.551)" fill="#263238"/><path d="M270.437,201.9l-.207,2.924h2.924l.206-2.924Z" transform="translate(-261.132 -178.551)" fill="#263238"/><path d="M275.807,201.9l-.207,2.924h2.924l.207-2.924Z" transform="translate(-260.664 -178.551)" fill="#263238"/><path d="M278.5,201.9l-.207,2.924h2.924l.2-2.924Z" transform="translate(-260.43 -178.551)" fill="#263238"/><path d="M281.176,201.9l-.2,2.924h2.913l.206-2.924Z" transform="translate(-260.196 -178.551)" fill="#263238"/><path d="M283.867,201.9l-.207,2.924h2.924l.2-2.924Z" transform="translate(-259.963 -178.551)" fill="#263238"/><path d="M286.546,201.9l-.2,2.924h2.913l.207-2.924Z" transform="translate(-259.729 -178.551)" fill="#263238"/><path d="M294.607,201.9l-.207,2.924h2.924l.2-2.924Z" transform="translate(-259.029 -178.551)" fill="#263238"/><path d="M297.286,201.9l-.2,2.924H300l.207-2.924Z" transform="translate(-258.795 -178.551)" fill="#263238"/><path d="M299.977,201.9l-.207,2.924h2.924l.2-2.924Z" transform="translate(-258.562 -178.551)" fill="#263238"/><path d="M308.026,201.9l-.2,2.924h2.913l.207-2.924Z" transform="translate(-257.86 -178.551)" fill="#263238"/><path d="M310.717,201.9l-.207,2.924h2.924l.206-2.924Z" transform="translate(-257.627 -178.551)" fill="#263238"/><path d="M313.407,201.9l-.207,2.924h2.913l.207-2.924Z" transform="translate(-257.393 -178.551)" fill="#263238"/><path d="M324.147,201.9l-.207,2.924h2.913l.207-2.924Z" transform="translate(-256.459 -178.551)" fill="#263238"/><path d="M270.246,204.59l-.2,2.913h2.913l.207-2.913Z" transform="translate(-261.147 -178.317)" fill="#263238"/><path d="M272.937,204.59l-.207,2.913h2.924l.2-2.913Z" transform="translate(-260.914 -178.317)" fill="#263238"/><path d="M275.616,204.59l-.2,2.913h2.913l.207-2.913Z" transform="translate(-260.68 -178.317)" fill="#263238"/><path d="M283.677,204.59l-.207,2.913h2.924l.206-2.913Z" transform="translate(-259.98 -178.317)" fill="#263238"/><path d="M286.367,204.59l-.207,2.913h2.913l.207-2.913Z" transform="translate(-259.746 -178.317)" fill="#263238"/><path d="M289.047,204.59l-.207,2.913h2.924l.206-2.913Z" transform="translate(-259.512 -178.317)" fill="#263238"/><path d="M294.417,204.59l-.207,2.913h2.924l.207-2.913Z" transform="translate(-259.045 -178.317)" fill="#263238"/><path d="M297.107,204.59,296.9,207.5h2.913l.207-2.913Z" transform="translate(-258.811 -178.317)" fill="#263238"/><path d="M307.846,204.59l-.207,2.913h2.913l.207-2.913Z" transform="translate(-257.877 -178.317)" fill="#263238"/><path d="M313.217,204.59l-.207,2.913h2.913l.207-2.913Z" transform="translate(-257.41 -178.317)" fill="#263238"/><path d="M329.326,204.59l-.206,2.913h2.924l.207-2.913Z" transform="translate(-256.008 -178.317)" fill="#263238"/><path d="M270.066,207.27l-.207,2.924h2.913l.207-2.924Z" transform="translate(-261.164 -178.084)" fill="#263238"/><path d="M280.807,207.27l-.207,2.924h2.913l.207-2.924Z" transform="translate(-260.229 -178.084)" fill="#263238"/><path d="M283.487,207.27l-.207,2.924H286.2l.206-2.924Z" transform="translate(-259.996 -178.084)" fill="#263238"/><path d="M291.547,207.27l-.207,2.924h2.913l.207-2.924Z" transform="translate(-259.295 -178.084)" fill="#263238"/><path d="M296.917,207.27l-.207,2.924h2.924l.2-2.924Z" transform="translate(-258.828 -178.084)" fill="#263238"/><path d="M302.286,207.27l-.207,2.924H305l.2-2.924Z" transform="translate(-258.361 -178.084)" fill="#263238"/><path d="M313.027,207.27l-.207,2.924h2.924l.2-2.924Z" transform="translate(-257.426 -178.084)" fill="#263238"/><path d="M315.706,207.27l-.2,2.924h2.913l.207-2.924Z" transform="translate(-257.192 -178.084)" fill="#263238"/><path d="M318.4,207.27l-.207,2.924h2.924l.207-2.924Z" transform="translate(-256.959 -178.084)" fill="#263238"/><path d="M323.766,207.27l-.206,2.924h2.924l.207-2.924Z" transform="translate(-256.492 -178.084)" fill="#263238"/><path d="M326.456,207.27l-.206,2.924h2.913l.207-2.924Z" transform="translate(-256.258 -178.084)" fill="#263238"/><path d="M329.137,207.27l-.207,2.924h2.924l.207-2.924Z" transform="translate(-256.024 -178.084)" fill="#263238"/><path d="M264.507,209.96l-.207,2.913h2.924l.2-2.913Z" transform="translate(-261.648 -177.85)" fill="#263238"/><path d="M267.186,209.96l-.2,2.913H269.9l.206-2.913Z" transform="translate(-261.414 -177.85)" fill="#263238"/><path d="M269.876,209.96l-.206,2.913h2.924l.2-2.913Z" transform="translate(-261.18 -177.85)" fill="#263238"/><path d="M275.247,209.96l-.207,2.913h2.924l.2-2.913Z" transform="translate(-260.713 -177.85)" fill="#263238"/><path d="M288.666,209.96l-.2,2.913h2.913l.206-2.913Z" transform="translate(-259.545 -177.85)" fill="#263238"/><path d="M291.357,209.96l-.207,2.913h2.924l.2-2.913Z" transform="translate(-259.311 -177.85)" fill="#263238"/><path d="M296.727,209.96l-.207,2.913h2.924l.207-2.913Z" transform="translate(-258.844 -177.85)" fill="#263238"/><path d="M299.417,209.96l-.207,2.913h2.913l.206-2.913Z" transform="translate(-258.61 -177.85)" fill="#263238"/><path d="M302.1,209.96l-.206,2.913h2.924l.206-2.913Z" transform="translate(-258.377 -177.85)" fill="#263238"/><path d="M304.786,209.96l-.207,2.913h2.913l.207-2.913Z" transform="translate(-258.143 -177.85)" fill="#263238"/><path d="M310.157,209.96l-.207,2.913h2.913l.207-2.913Z" transform="translate(-257.676 -177.85)" fill="#263238"/><path d="M312.837,209.96l-.207,2.913h2.924l.207-2.913Z" transform="translate(-257.443 -177.85)" fill="#263238"/><path d="M315.527,209.96l-.207,2.913h2.913l.207-2.913Z" transform="translate(-257.209 -177.85)" fill="#263238"/><path d="M326.266,209.96l-.206,2.913h2.924l.2-2.913Z" transform="translate(-256.274 -177.85)" fill="#263238"/><path d="M269.687,212.64l-.207,2.924H272.4l.206-2.924Z" transform="translate(-261.197 -177.617)" fill="#263238"/><path d="M272.377,212.64l-.207,2.924h2.913l.207-2.924Z" transform="translate(-260.963 -177.617)" fill="#263238"/><path d="M280.427,212.64l-.207,2.924h2.924l.206-2.924Z" transform="translate(-260.262 -177.617)" fill="#263238"/><path d="M285.8,212.64l-.207,2.924h2.924l.207-2.924Z" transform="translate(-259.795 -177.617)" fill="#263238"/><path d="M291.167,212.64l-.207,2.924h2.924l.207-2.924Z" transform="translate(-259.328 -177.617)" fill="#263238"/><path d="M299.227,212.64l-.207,2.924h2.924l.2-2.924Z" transform="translate(-258.627 -177.617)" fill="#263238"/><path d="M307.276,212.64l-.2,2.924h2.913l.207-2.924Z" transform="translate(-257.926 -177.617)" fill="#263238"/><path d="M309.967,212.64l-.207,2.924h2.924l.2-2.924Z" transform="translate(-257.692 -177.617)" fill="#263238"/><path d="M312.646,212.64l-.2,2.924h2.913l.207-2.924Z" transform="translate(-257.458 -177.617)" fill="#263238"/><path d="M315.337,212.64l-.207,2.924h2.924l.2-2.924Z" transform="translate(-257.225 -177.617)" fill="#263238"/><path d="M320.707,212.64l-.207,2.924h2.924l.207-2.924Z" transform="translate(-256.758 -177.617)" fill="#263238"/><path d="M326.077,212.64l-.207,2.924h2.924L329,212.64Z" transform="translate(-256.291 -177.617)" fill="#263238"/><path d="M328.767,212.64l-.207,2.924h2.913l.207-2.924Z" transform="translate(-256.057 -177.617)" fill="#263238"/><path d="M277.557,215.33l-.207,2.913h2.924l.2-2.913Z" transform="translate(-260.512 -177.383)" fill="#263238"/><path d="M282.927,215.33l-.207,2.913h2.924l.2-2.913Z" transform="translate(-260.045 -177.383)" fill="#263238"/><path d="M285.606,215.33l-.2,2.913h2.913l.206-2.913Z" transform="translate(-259.811 -177.383)" fill="#263238"/><path d="M290.976,215.33l-.2,2.913h2.913l.207-2.913Z" transform="translate(-259.344 -177.383)" fill="#263238"/><path d="M296.346,215.33l-.2,2.913h2.913l.207-2.913Z" transform="translate(-258.876 -177.383)" fill="#263238"/><path d="M307.1,215.33l-.206,2.913H309.8l.207-2.913Z" transform="translate(-257.942 -177.383)" fill="#263238"/><path d="M309.777,215.33l-.207,2.913h2.924l.207-2.913Z" transform="translate(-257.709 -177.383)" fill="#263238"/><path d="M312.467,215.33l-.207,2.913h2.913l.207-2.913Z" transform="translate(-257.475 -177.383)" fill="#263238"/><path d="M320.517,215.33l-.207,2.913h2.924l.207-2.913Z" transform="translate(-256.774 -177.383)" fill="#263238"/><path d="M328.576,215.33l-.207,2.913h2.924l.2-2.913Z" transform="translate(-256.073 -177.383)" fill="#263238"/><path d="M263.936,218.01l-.2,2.924h2.913l.206-2.924Z" transform="translate(-261.696 -177.149)" fill="#263238"/><path d="M272,218.01l-.207,2.924h2.924l.207-2.924Z" transform="translate(-260.996 -177.149)" fill="#263238"/><path d="M274.687,218.01l-.207,2.924h2.913l.207-2.924Z" transform="translate(-260.762 -177.149)" fill="#263238"/><path d="M277.367,218.01l-.207,2.924h2.924l.206-2.924Z" transform="translate(-260.529 -177.149)" fill="#263238"/><path d="M280.057,218.01l-.207,2.924h2.913l.206-2.924Z" transform="translate(-260.295 -177.149)" fill="#263238"/><path d="M282.737,218.01l-.207,2.924h2.924l.206-2.924Z" transform="translate(-260.062 -177.149)" fill="#263238"/><path d="M288.107,218.01l-.207,2.924h2.924l.207-2.924Z" transform="translate(-259.594 -177.149)" fill="#263238"/><path d="M290.8,218.01l-.207,2.924H293.5l.207-2.924Z" transform="translate(-259.36 -177.149)" fill="#263238"/><path d="M298.846,218.01l-.206,2.924h2.924l.206-2.924Z" transform="translate(-258.66 -177.149)" fill="#263238"/><path d="M306.907,218.01l-.207,2.924h2.924l.2-2.924Z" transform="translate(-257.959 -177.149)" fill="#263238"/><path d="M309.586,218.01l-.2,2.924H312.3l.207-2.924Z" transform="translate(-257.724 -177.149)" fill="#263238"/><path d="M312.277,218.01l-.207,2.924h2.924l.2-2.924Z" transform="translate(-257.491 -177.149)" fill="#263238"/><path d="M314.956,218.01l-.2,2.924h2.913l.207-2.924Z" transform="translate(-257.257 -177.149)" fill="#263238"/><path d="M323.017,218.01l-.207,2.924h2.924l.207-2.924Z" transform="translate(-256.557 -177.149)" fill="#263238"/><path d="M325.707,218.01l-.207,2.924h2.913l.207-2.924Z" transform="translate(-256.323 -177.149)" fill="#263238"/><path d="M328.387,218.01l-.207,2.924H331.1l.207-2.924Z" transform="translate(-256.09 -177.149)" fill="#263238"/><path d="M266.437,220.7l-.207,2.913h2.924l.206-2.913Z" transform="translate(-261.48 -176.915)" fill="#263238"/><path d="M269.127,220.7l-.207,2.913h2.924l.2-2.913Z" transform="translate(-261.246 -176.915)" fill="#263238"/><path d="M277.176,220.7l-.2,2.913h2.913l.207-2.913Z" transform="translate(-260.544 -176.915)" fill="#263238"/><path d="M282.546,220.7l-.2,2.913h2.913l.207-2.913Z" transform="translate(-260.077 -176.915)" fill="#263238"/><path d="M287.916,220.7l-.2,2.913h2.913l.206-2.913Z" transform="translate(-259.61 -176.915)" fill="#263238"/><path d="M290.607,220.7l-.207,2.913h2.924l.2-2.913Z" transform="translate(-259.377 -176.915)" fill="#263238"/><path d="M298.656,220.7l-.2,2.913h2.913l.207-2.913Z" transform="translate(-258.676 -176.915)" fill="#263238"/><path d="M304.036,220.7l-.206,2.913h2.913l.207-2.913Z" transform="translate(-258.208 -176.915)" fill="#263238"/><path d="M312.086,220.7l-.206,2.913H314.8l.207-2.913Z" transform="translate(-257.508 -176.915)" fill="#263238"/><path d="M317.457,220.7l-.207,2.913h2.924l.207-2.913Z" transform="translate(-257.041 -176.915)" fill="#263238"/><path d="M325.517,220.7l-.207,2.913h2.924l.2-2.913Z" transform="translate(-256.339 -176.915)" fill="#263238"/><path d="M263.567,223.38l-.207,2.924h2.924l.2-2.924Z" transform="translate(-261.729 -176.682)" fill="#263238"/><path d="M268.937,223.38l-.207,2.924h2.924l.206-2.924Z" transform="translate(-261.262 -176.682)" fill="#263238"/><path d="M277,223.38l-.207,2.924H279.7l.207-2.924Z" transform="translate(-260.561 -176.682)" fill="#263238"/><path d="M279.677,223.38l-.207,2.924h2.924l.207-2.924Z" transform="translate(-260.328 -176.682)" fill="#263238"/><path d="M282.367,223.38l-.207,2.924h2.913l.206-2.924Z" transform="translate(-260.094 -176.682)" fill="#263238"/><path d="M298.477,223.38l-.207,2.924h2.913l.207-2.924Z" transform="translate(-258.692 -176.682)" fill="#263238"/><path d="M306.527,223.38l-.207,2.924h2.924l.207-2.924Z" transform="translate(-257.992 -176.682)" fill="#263238"/><path d="M309.217,223.38l-.207,2.924h2.924l.2-2.924Z" transform="translate(-257.758 -176.682)" fill="#263238"/><path d="M311.9,223.38l-.2,2.924h2.913l.207-2.924Z" transform="translate(-257.523 -176.682)" fill="#263238"/><path d="M314.587,223.38l-.207,2.924H317.3l.2-2.924Z" transform="translate(-257.29 -176.682)" fill="#263238"/><path d="M317.266,223.38l-.2,2.924h2.913l.206-2.924Z" transform="translate(-257.056 -176.682)" fill="#263238"/><path d="M319.957,223.38l-.207,2.924h2.924l.207-2.924Z" transform="translate(-256.823 -176.682)" fill="#263238"/><path d="M284.857,226.07l-.207,2.913h2.924l.207-2.913Z" transform="translate(-259.877 -176.448)" fill="#263238"/><path d="M290.226,226.07l-.2,2.913h2.913l.207-2.913Z" transform="translate(-259.409 -176.448)" fill="#263238"/><path d="M295.6,226.07l-.2,2.913h2.913l.207-2.913Z" transform="translate(-258.942 -176.448)" fill="#263238"/><path d="M306.336,226.07l-.2,2.913h2.913l.207-2.913Z" transform="translate(-258.007 -176.448)" fill="#263238"/><path d="M317.087,226.07l-.207,2.913h2.913L320,226.07Z" transform="translate(-257.073 -176.448)" fill="#263238"/><path d="M319.767,226.07l-.207,2.913h2.924l.206-2.913Z" transform="translate(-256.84 -176.448)" fill="#263238"/><path d="M325.137,226.07l-.207,2.913h2.924l.207-2.913Z" transform="translate(-256.372 -176.448)" fill="#263238"/><path d="M327.827,226.07l-.207,2.913h2.924l.2-2.913Z" transform="translate(-256.138 -176.448)" fill="#263238"/><path d="M263.186,228.75l-.2,2.924H265.9l.206-2.924Z" transform="translate(-261.762 -176.215)" fill="#263238"/><path d="M265.877,228.75l-.207,2.924h2.924l.2-2.924Z" transform="translate(-261.529 -176.215)" fill="#263238"/><path d="M268.556,228.75l-.2,2.924h2.913l.206-2.924Z" transform="translate(-261.294 -176.215)" fill="#263238"/><path d="M271.247,228.75l-.207,2.924h2.924l.2-2.924Z" transform="translate(-261.061 -176.215)" fill="#263238"/><path d="M273.926,228.75l-.2,2.924h2.913l.207-2.924Z" transform="translate(-260.827 -176.215)" fill="#263238"/><path d="M276.617,228.75l-.207,2.924h2.924l.206-2.924Z" transform="translate(-260.594 -176.215)" fill="#263238"/><path d="M279.307,228.75l-.207,2.924h2.913l.206-2.924Z" transform="translate(-260.36 -176.215)" fill="#263238"/><path d="M284.666,228.75l-.2,2.924h2.913l.207-2.924Z" transform="translate(-259.893 -176.215)" fill="#263238"/><path d="M287.357,228.75l-.207,2.924h2.924l.207-2.924Z" transform="translate(-259.66 -176.215)" fill="#263238"/><path d="M290.047,228.75l-.207,2.924h2.913l.207-2.924Z" transform="translate(-259.426 -176.215)" fill="#263238"/><path d="M298.1,228.75l-.206,2.924h2.924l.207-2.924Z" transform="translate(-258.725 -176.215)" fill="#263238"/><path d="M300.786,228.75l-.207,2.924h2.913l.207-2.924Z" transform="translate(-258.491 -176.215)" fill="#263238"/><path d="M303.467,228.75l-.207,2.924h2.924l.207-2.924Z" transform="translate(-258.258 -176.215)" fill="#263238"/><path d="M306.157,228.75l-.207,2.924h2.913l.207-2.924Z" transform="translate(-258.024 -176.215)" fill="#263238"/><path d="M311.527,228.75l-.207,2.924h2.924l.2-2.924Z" transform="translate(-257.557 -176.215)" fill="#263238"/><path d="M316.9,228.75l-.207,2.924h2.924l.2-2.924Z" transform="translate(-257.089 -176.215)" fill="#263238"/><path d="M319.576,228.75l-.2,2.924h2.913l.206-2.924Z" transform="translate(-256.855 -176.215)" fill="#263238"/><path d="M324.946,228.75l-.2,2.924h2.913l.207-2.924Z" transform="translate(-256.388 -176.215)" fill="#263238"/><path d="M327.637,228.75l-.207,2.924h2.924l.207-2.924Z" transform="translate(-256.155 -176.215)" fill="#263238"/><path d="M263.007,231.44l-.207,2.913h2.913l.207-2.913Z" transform="translate(-261.778 -175.981)" fill="#263238"/><path d="M279.117,231.44l-.207,2.913h2.924l.2-2.913Z" transform="translate(-260.376 -175.981)" fill="#263238"/><path d="M284.487,231.44l-.207,2.913h2.913l.207-2.913Z" transform="translate(-259.909 -175.981)" fill="#263238"/><path d="M295.226,231.44l-.206,2.913h2.924l.2-2.913Z" transform="translate(-258.975 -175.981)" fill="#263238"/><path d="M297.906,231.44l-.2,2.913h2.913l.207-2.913Z" transform="translate(-258.741 -175.981)" fill="#263238"/><path d="M300.6,231.44l-.206,2.913h2.924l.2-2.913Z" transform="translate(-258.508 -175.981)" fill="#263238"/><path d="M305.967,231.44l-.207,2.913h2.924l.2-2.913Z" transform="translate(-258.04 -175.981)" fill="#263238"/><path d="M316.707,231.44l-.207,2.913h2.924l.207-2.913Z" transform="translate(-257.106 -175.981)" fill="#263238"/><path d="M319.4,231.44l-.207,2.913H322.1l.207-2.913Z" transform="translate(-256.872 -175.981)" fill="#263238"/><path d="M324.767,231.44l-.207,2.913h2.913l.207-2.913Z" transform="translate(-256.405 -175.981)" fill="#263238"/><path d="M262.817,234.12l-.207,2.924h2.924l.2-2.924Z" transform="translate(-261.795 -175.748)" fill="#263238"/><path d="M268.187,234.12l-.207,2.924H270.9l.2-2.924Z" transform="translate(-261.327 -175.748)" fill="#263238"/><path d="M270.866,234.12l-.2,2.924h2.913l.207-2.924Z" transform="translate(-261.093 -175.748)" fill="#263238"/><path d="M273.557,234.12l-.207,2.924h2.924l.2-2.924Z" transform="translate(-260.86 -175.748)" fill="#263238"/><path d="M278.927,234.12l-.207,2.924h2.924l.207-2.924Z" transform="translate(-260.393 -175.748)" fill="#263238"/><path d="M284.3,234.12l-.207,2.924h2.924l.2-2.924Z" transform="translate(-259.926 -175.748)" fill="#263238"/><path d="M292.357,234.12l-.207,2.924h2.913l.207-2.924Z" transform="translate(-259.225 -175.748)" fill="#263238"/><path d="M295.037,234.12l-.207,2.924h2.924l.206-2.924Z" transform="translate(-258.991 -175.748)" fill="#263238"/><path d="M297.727,234.12l-.207,2.924h2.913l.207-2.924Z" transform="translate(-258.757 -175.748)" fill="#263238"/><path d="M300.407,234.12l-.207,2.924h2.924l.207-2.924Z" transform="translate(-258.524 -175.748)" fill="#263238"/><path d="M305.777,234.12l-.207,2.924h2.924l.207-2.924Z" transform="translate(-258.057 -175.748)" fill="#263238"/><path d="M308.467,234.12l-.207,2.924h2.913l.207-2.924Z" transform="translate(-257.823 -175.748)" fill="#263238"/><path d="M311.147,234.12l-.206,2.924h2.924l.207-2.924Z" transform="translate(-257.59 -175.748)" fill="#263238"/><path d="M313.837,234.12l-.207,2.924h2.913l.207-2.924Z" transform="translate(-257.356 -175.748)" fill="#263238"/><path d="M316.517,234.12l-.207,2.924h2.924l.207-2.924Z" transform="translate(-257.122 -175.748)" fill="#263238"/><path d="M319.207,234.12,319,237.044h2.924l.2-2.924Z" transform="translate(-256.888 -175.748)" fill="#263238"/><path d="M324.576,234.12l-.206,2.924h2.924l.2-2.924Z" transform="translate(-256.421 -175.748)" fill="#263238"/><path d="M262.627,236.81l-.207,2.913h2.924l.207-2.913Z" transform="translate(-261.811 -175.514)" fill="#263238"/><path d="M268,236.81l-.207,2.913h2.924l.207-2.913Z" transform="translate(-261.344 -175.514)" fill="#263238"/><path d="M270.687,236.81l-.207,2.913h2.913l.206-2.913Z" transform="translate(-261.11 -175.514)" fill="#263238"/><path d="M273.367,236.81l-.207,2.913h2.924l.207-2.913Z" transform="translate(-260.877 -175.514)" fill="#263238"/><path d="M278.737,236.81l-.207,2.913h2.924l.207-2.913Z" transform="translate(-260.41 -175.514)" fill="#263238"/><path d="M286.8,236.81l-.207,2.913H289.5l.207-2.913Z" transform="translate(-259.708 -175.514)" fill="#263238"/><path d="M289.477,236.81l-.207,2.913h2.924l.207-2.913Z" transform="translate(-259.475 -175.514)" fill="#263238"/><path d="M294.847,236.81l-.207,2.913h2.924l.207-2.913Z" transform="translate(-259.008 -175.514)" fill="#263238"/><path d="M302.907,236.81l-.207,2.913h2.924l.2-2.913Z" transform="translate(-258.307 -175.514)" fill="#263238"/><path d="M305.586,236.81l-.2,2.913H308.3l.207-2.913Z" transform="translate(-258.073 -175.514)" fill="#263238"/><path d="M313.647,236.81l-.207,2.913h2.924l.2-2.913Z" transform="translate(-257.372 -175.514)" fill="#263238"/><path d="M316.326,236.81l-.2,2.913h2.913l.206-2.913Z" transform="translate(-257.138 -175.514)" fill="#263238"/><path d="M319.017,236.81l-.207,2.913h2.924l.207-2.913Z" transform="translate(-256.905 -175.514)" fill="#263238"/><path d="M321.707,236.81l-.207,2.913h2.913l.207-2.913Z" transform="translate(-256.671 -175.514)" fill="#263238"/><path d="M262.437,239.49l-.207,2.924h2.924l.206-2.924Z" transform="translate(-261.828 -175.28)" fill="#263238"/><path d="M267.806,239.49l-.2,2.924h2.913l.207-2.924Z" transform="translate(-261.36 -175.28)" fill="#263238"/><path d="M270.5,239.49l-.207,2.924h2.924l.2-2.924Z" transform="translate(-261.127 -175.28)" fill="#263238"/><path d="M273.176,239.49l-.2,2.924h2.913l.207-2.924Z" transform="translate(-260.892 -175.28)" fill="#263238"/><path d="M278.546,239.49l-.2,2.924h2.913l.207-2.924Z" transform="translate(-260.425 -175.28)" fill="#263238"/><path d="M283.916,239.49l-.2,2.924h2.913l.207-2.924Z" transform="translate(-259.958 -175.28)" fill="#263238"/><path d="M297.347,239.49l-.207,2.924h2.924l.207-2.924Z" transform="translate(-258.79 -175.28)" fill="#263238"/><path d="M302.717,239.49l-.207,2.924h2.924l.207-2.924Z" transform="translate(-258.323 -175.28)" fill="#263238"/><path d="M316.147,239.49l-.207,2.924h2.924l.2-2.924Z" transform="translate(-257.155 -175.28)" fill="#263238"/><path d="M326.887,239.49l-.207,2.924H329.6l.2-2.924Z" transform="translate(-256.22 -175.28)" fill="#263238"/><path d="M262.246,242.18l-.2,2.913h2.913l.207-2.913Z" transform="translate(-261.843 -175.046)" fill="#263238"/><path d="M278.367,242.18l-.207,2.913h2.913l.207-2.913Z" transform="translate(-260.442 -175.046)" fill="#263238"/><path d="M283.737,242.18l-.207,2.913h2.913l.207-2.913Z" transform="translate(-259.975 -175.046)" fill="#263238"/><path d="M286.417,242.18l-.207,2.913h2.924l.207-2.913Z" transform="translate(-259.741 -175.046)" fill="#263238"/><path d="M291.787,242.18l-.207,2.913H294.5l.206-2.913Z" transform="translate(-259.274 -175.046)" fill="#263238"/><path d="M297.157,242.18l-.207,2.913h2.924l.207-2.913Z" transform="translate(-258.807 -175.046)" fill="#263238"/><path d="M299.846,242.18l-.206,2.913h2.924l.2-2.913Z" transform="translate(-258.573 -175.046)" fill="#263238"/><path d="M302.526,242.18l-.2,2.913h2.913l.207-2.913Z" transform="translate(-258.339 -175.046)" fill="#263238"/><path d="M305.216,242.18l-.206,2.913h2.924l.2-2.913Z" transform="translate(-258.106 -175.046)" fill="#263238"/><path d="M310.587,242.18l-.207,2.913H313.3l.2-2.913Z" transform="translate(-257.638 -175.046)" fill="#263238"/><path d="M315.957,242.18l-.207,2.913h2.924l.206-2.913Z" transform="translate(-257.171 -175.046)" fill="#263238"/><path d="M318.647,242.18l-.207,2.913h2.913l.207-2.913Z" transform="translate(-256.937 -175.046)" fill="#263238"/><path d="M324.017,242.18l-.207,2.913h2.913l.207-2.913Z" transform="translate(-256.47 -175.046)" fill="#263238"/><path d="M262.067,244.86l-.207,2.924h2.913l.206-2.924Z" transform="translate(-261.86 -174.813)" fill="#263238"/><path d="M264.747,244.86l-.207,2.924h2.924l.207-2.924Z" transform="translate(-261.627 -174.813)" fill="#263238"/><path d="M267.437,244.86l-.207,2.924h2.924l.2-2.924Z" transform="translate(-261.393 -174.813)" fill="#263238"/><path d="M270.116,244.86l-.2,2.924h2.913l.207-2.924Z" transform="translate(-261.159 -174.813)" fill="#263238"/><path d="M272.807,244.86l-.207,2.924h2.924l.2-2.924Z" transform="translate(-260.925 -174.813)" fill="#263238"/><path d="M275.486,244.86l-.2,2.924H278.2l.206-2.924Z" transform="translate(-260.691 -174.813)" fill="#263238"/><path d="M278.177,244.86l-.207,2.924h2.924l.2-2.924Z" transform="translate(-260.458 -174.813)" fill="#263238"/><path d="M283.547,244.86l-.207,2.924h2.924l.2-2.924Z" transform="translate(-259.991 -174.813)" fill="#263238"/><path d="M286.226,244.86l-.2,2.924h2.913l.207-2.924Z" transform="translate(-259.757 -174.813)" fill="#263238"/><path d="M288.917,244.86l-.207,2.924h2.924l.2-2.924Z" transform="translate(-259.524 -174.813)" fill="#263238"/><path d="M291.6,244.86l-.2,2.924h2.913l.207-2.924Z" transform="translate(-259.29 -174.813)" fill="#263238"/><path d="M294.287,244.86l-.207,2.924H297l.2-2.924Z" transform="translate(-259.057 -174.813)" fill="#263238"/><path d="M296.966,244.86l-.2,2.924h2.913l.207-2.924Z" transform="translate(-258.823 -174.813)" fill="#263238"/><path d="M305.027,244.86l-.207,2.924h2.924l.207-2.924Z" transform="translate(-258.122 -174.813)" fill="#263238"/><path d="M307.717,244.86l-.207,2.924h2.913l.207-2.924Z" transform="translate(-257.888 -174.813)" fill="#263238"/><path d="M313.087,244.86l-.207,2.924h2.913L316,244.86Z" transform="translate(-257.421 -174.813)" fill="#263238"/><path d="M323.827,244.86l-.207,2.924h2.924l.2-2.924Z" transform="translate(-256.486 -174.813)" fill="#263238"/><path d="M326.506,244.86l-.2,2.924h2.913l.207-2.924Z" transform="translate(-256.252 -174.813)" fill="#263238"/></g></g></g></svg>