<svg xmlns="http://www.w3.org/2000/svg" width="32" height="32" viewBox="0 0 32 32"><path d="M18.761,32.617a3.788,3.788,0,0,0,.828.626A3.856,3.856,0,0,0,23.6,37.255a3.862,3.862,0,0,0,6.088.828,3.775,3.775,0,0,0,.356-.424l.034.034a1.655,1.655,0,0,0,2.34,0L45.681,24.425a1.659,1.659,0,0,0,0-2.341l-.034-.034a3.713,3.713,0,0,0,.424-.356,3.867,3.867,0,0,0,0-5.462,3.788,3.788,0,0,0-.828-.626,3.856,3.856,0,0,0-4.011-4.011,3.862,3.862,0,0,0-6.085-.824,3.747,3.747,0,0,0-.356.424l-.034-.034a1.7,1.7,0,0,0-2.341,0L19.15,24.425a1.659,1.659,0,0,0,0,2.341l.034.034a3.713,3.713,0,0,0-.424.356A3.867,3.867,0,0,0,18.761,32.617ZM35.926,11.551A2.751,2.751,0,0,1,40.4,12.4a.552.552,0,0,0,.585.327,2.754,2.754,0,0,1,3.128,3.129.552.552,0,0,0,.328.585,2.7,2.7,0,0,1,.846.574,2.728,2.728,0,0,1-.435,4.247l-.38-.381a3.307,3.307,0,0,0-4.1-4.914V13.111a.552.552,0,0,0-.552-.552H36.155l-.574-.574A2.714,2.714,0,0,1,35.926,11.551Zm3.35,4.129-2.018-2.017h2.018Zm4.4,4.4-3.006-3.006a2.266,2.266,0,0,1,2.671.331,2.184,2.184,0,0,1,.335,2.676ZM19.931,25.205,33.2,11.941a.552.552,0,0,1,.78,0L44.9,22.865a.552.552,0,0,1,0,.781L31.635,36.909a.564.564,0,0,1-.78,0L19.932,25.985A.552.552,0,0,1,19.931,25.205Zm1.226,3.566,3.006,3.006a2.266,2.266,0,0,1-2.671-.331,2.184,2.184,0,0,1-.335-2.676Zm4.4,4.4,2.018,2.017H25.555Zm-5.2-5.2a3.307,3.307,0,0,0,4.1,4.914v2.854A.552.552,0,0,0,25,36.29h3.673l.574.574a2.715,2.715,0,0,1-.346.434,2.751,2.751,0,0,1-4.476-.846.552.552,0,0,0-.585-.327A2.754,2.754,0,0,1,20.716,33a.552.552,0,0,0-.331-.585,2.706,2.706,0,0,1-.846-.574,2.762,2.762,0,0,1,0-3.9,2.734,2.734,0,0,1,.435-.346Zm0,0" transform="translate(-16.415 -8.977)"/><path d="M89.687,93.609a1.655,1.655,0,0,0,2.341,0l9.363-9.363a1.656,1.656,0,0,0,0-2.341,1.7,1.7,0,0,0-2.34,0l-9.363,9.363A1.656,1.656,0,0,0,89.687,93.609Zm.78-1.561,9.363-9.363a.565.565,0,0,1,.78,0,.552.552,0,0,1,0,.781l-9.363,9.363a.552.552,0,1,1-.781-.78Zm0,0" transform="translate(-83.05 -75.82)"/><path d="M140.121,143.413a1.655,1.655,0,0,0,2.825,1.17l9.363-9.363a1.655,1.655,0,0,0-2.341-2.341l-9.363,9.363A1.645,1.645,0,0,0,140.121,143.413Zm1.265-.39,9.363-9.363a.552.552,0,1,1,.78.78l-9.363,9.362a.552.552,0,1,1-.78-.78Zm0,0" transform="translate(-130.457 -123.284)"/><path d="M191.519,195.216a1.656,1.656,0,0,0,2.341,0l9.363-9.363a1.655,1.655,0,1,0-2.341-2.341l-9.363,9.363A1.656,1.656,0,0,0,191.519,195.216Zm.78-1.561,9.363-9.363a.552.552,0,0,1,.781.78l-9.363,9.363a.564.564,0,0,1-.78,0A.552.552,0,0,1,192.3,193.655Zm0,0" transform="translate(-177.859 -170.404)"/><path d="M1.14,17.064C1.116,16.717,1.1,16.356,1.1,16A14.913,14.913,0,0,1,16,1.1c.353,0,.711.013,1.065.037l.077-1.1C16.763.013,16.379,0,16,0A16.018,16.018,0,0,0,0,16c0,.382.013.767.04,1.143Zm0,0" transform="translate(0 0)"/><path d="M217.149,201.149a16.3,16.3,0,0,0-.162-2.285l-1.092.157a15.125,15.125,0,0,1,.151,2.128,14.913,14.913,0,0,1-14.9,14.9,15.125,15.125,0,0,1-2.128-.151l-.157,1.092a16.012,16.012,0,0,0,18.285-15.838Zm0,0" transform="translate(-185.149 -185.149)"/></svg>