<svg xmlns="http://www.w3.org/2000/svg" width="27.174" height="27.174" viewBox="0 0 27.174 27.174"><path d="M0,0H27.174V27.174H0Z" fill="none"/><path d="M10.952,21.07V15.409h4.529V21.07A1.136,1.136,0,0,0,16.613,22.2h3.4a1.136,1.136,0,0,0,1.132-1.132V13.145h1.925a.562.562,0,0,0,.374-.985L13.975,3.634a1.141,1.141,0,0,0-1.517,0L2.992,12.16a.564.564,0,0,0,.374.985H5.291V21.07A1.136,1.136,0,0,0,6.423,22.2h3.4A1.136,1.136,0,0,0,10.952,21.07Z" transform="translate(0.371 0.442)" fill="none" stroke="#000" stroke-width="2"/></svg>