<svg xmlns="http://www.w3.org/2000/svg" width="24" height="24" viewBox="0 0 24 24"><g opacity="0.54"><rect width="24" height="24" fill="none"/><path d="M11.273,12.922q-.01.03-.124,0t-.313-.114l-.2-.089a5.958,5.958,0,0,1-.865-.487q-.07-.05-.408-.313t-.378-.283a16.939,16.939,0,0,1-1.332,1.8,7.392,7.392,0,0,1-1.044,1.094.788.788,0,0,1-.194.04.383.383,0,0,1-.184,0q.06-.04.815-.915.209-.239.85-1.143a13.9,13.9,0,0,0,.781-1.173q.169-.3.507-.979a7.75,7.75,0,0,0,.358-.771,8.17,8.17,0,0,0-1.094.328q-.08.02-.273.075l-.343.094a1.7,1.7,0,0,0-.169.05.169.169,0,0,0-.02.1.221.221,0,0,1-.01.094q-.05.1-.308.149a.8.8,0,0,1-.467,0,.419.419,0,0,1-.278-.209.506.506,0,0,1-.05-.229,1.921,1.921,0,0,1,.244-.05,2.969,2.969,0,0,0,.293-.06q.577-.159,1.044-.318.994-.348,1.014-.348a2.206,2.206,0,0,0,.428-.194,4.5,4.5,0,0,1,.437-.214q.089-.03.214-.08t.144-.055a.133.133,0,0,1,.06,0,1.131,1.131,0,0,1-.01.328,2.117,2.117,0,0,1-.124.268q-.124.249-.263.532t-.169.333a14.913,14.913,0,0,1-.766,1.3l.636.278q.119.06.741.318l.671.278q.04.01.1.254a.753.753,0,0,1,.045.3ZM9.234,8.09a.4.4,0,0,1-.04.278.9.9,0,0,1-.5.378,1.6,1.6,0,0,1-.6.119.823.823,0,0,1-.487-.259A.748.748,0,0,1,7.435,8.2l.01-.03a.425.425,0,0,0,.194.05.865.865,0,0,0,.263,0q.1-.02.577-.159a2.839,2.839,0,0,1,.547-.139.2.2,0,0,1,.209.169Zm6.94,1.283.626,2.257-1.382-.418ZM5.158,17.327l6.9-2.307V4.759l-6.9,2.317V17.327ZM17.5,14.175l1.014.308-1.8-6.533-.994-.308-2.148,5.329,1.014.308.447-1.094,2.1.646Zm-5-9.565,5.7,1.83V2.661Zm3.092,13.154,1.571.129-.537,1.591-.4-.656A7.371,7.371,0,0,1,13.48,19.9a4.765,4.765,0,0,1-.9.119H11.74a6.72,6.72,0,0,1-1.984-.388,6.6,6.6,0,0,1-1.825-.845.207.207,0,0,1-.08-.159.192.192,0,0,1,.05-.134.167.167,0,0,1,.129-.055.56.56,0,0,1,.179.075l.3.164.2.109A8.809,8.809,0,0,0,10.3,19.4a5.794,5.794,0,0,0,1.566.244,8.485,8.485,0,0,0,1.66-.144,8.2,8.2,0,0,0,1.561-.5q.149-.07.3-.154t.338-.189q.184-.1.283-.164ZM20.042,7.036V17.764l-7.7-2.446q-.139.06-3.729,1.268T4.959,17.794a.18.18,0,0,1-.179-.129.076.076,0,0,0-.01-.03V6.916a.444.444,0,0,1,.04-.1.447.447,0,0,1,.2-.109q1.054-.348,1.481-.5V2.392l5.548,1.969q.02,0,1.6-.547t3.142-1.079Q18.342,2.2,18.382,2.2q.2,0,.2.209V6.568Z" transform="translate(-0.406 0.312)"/></g></svg>