<svg xmlns="http://www.w3.org/2000/svg" width="24" height="24" viewBox="0 0 24 24"><g transform="translate(-289 -74)"><rect width="24" height="24" transform="translate(289 74)" fill="none"/><g transform="translate(293.25 76.25)"><g transform="translate(-0.25 -0.25)"><path d="M20.913,19.092,19.285,17.3a1.073,1.073,0,0,1-.255-.681v-3.69a5.3,5.3,0,0,0-4.215-4.967V6.519a1.521,1.521,0,0,0-1.6-1.419,1.54,1.54,0,0,0-1.6,1.419V7.938a5.282,5.282,0,0,0-4.215,5v3.69a1.073,1.073,0,0,1-.255.681L5.524,19.092a.839.839,0,0,0-.224.539v2.242H21.2V19.631A1.513,1.513,0,0,0,20.913,19.092ZM12.548,6.519a.643.643,0,0,1,1.277,0V7.8a5.053,5.053,0,0,0-1.309,0V6.519Zm7.631,14.475H6.194V19.631l1.628-1.788a1.755,1.755,0,0,0,.479-1.22v-3.69a4.637,4.637,0,0,1,4.885-4.342,4.618,4.618,0,0,1,4.885,4.342v3.69a1.755,1.755,0,0,0,.479,1.22l1.628,1.788Z" transform="translate(-5.108 -4.908)"/><path d="M21.335,22.008H5.05V19.574a1.022,1.022,0,0,1,.273-.668l1.625-1.784a.884.884,0,0,0,.209-.556v-3.69A4.873,4.873,0,0,1,8.352,9.637a6.063,6.063,0,0,1,3.02-1.9V6.461A1.73,1.73,0,0,1,13.161,4.85a1.709,1.709,0,0,1,1.789,1.611v1.3a5.473,5.473,0,0,1,4.215,5.115v3.69a.884.884,0,0,0,.209.556L21,18.9a1.72,1.72,0,0,1,.328.61l.009.029Zm-15.9-.385H20.951V19.6a1.3,1.3,0,0,0-.238-.442l-1.635-1.8a1.26,1.26,0,0,1-.3-.8v-3.69A5.11,5.11,0,0,0,14.71,8.1l-.146-.036v-1.6a1.326,1.326,0,0,0-1.4-1.227,1.342,1.342,0,0,0-1.4,1.227V8.029l-.144.037A5.708,5.708,0,0,0,8.646,9.885a4.5,4.5,0,0,0-1.1,2.988v3.692a1.26,1.26,0,0,1-.3.8l-.008.009L5.608,19.164a.642.642,0,0,0-.173.41Zm14.879-.5H5.944V19.5l1.679-1.843a1.566,1.566,0,0,0,.429-1.091v-3.69a4.835,4.835,0,0,1,5.077-4.535,5.375,5.375,0,0,1,3.588,1.315,4.278,4.278,0,0,1,1.489,3.22v3.69a1.564,1.564,0,0,0,.427,1.089l1.68,1.845ZM6.329,20.744h13.6v-1.1l-1.578-1.733a1.94,1.94,0,0,1-.529-1.35v-3.69a3.9,3.9,0,0,0-1.36-2.932,4.992,4.992,0,0,0-3.333-1.218,4.452,4.452,0,0,0-4.693,4.15v3.69A1.942,1.942,0,0,1,7.9,17.917L6.329,19.648ZM13.96,7.957l-.216-.027a4.816,4.816,0,0,0-1.261,0l-.216.027V6.269h.059a.823.823,0,0,1,.8-.568.8.8,0,0,1,.831.76Zm-1.309-1.3v.871a5.143,5.143,0,0,1,.925,0V6.461a.453.453,0,0,0-.893,0v.192Z" transform="translate(-5.05 -4.85)"/><path d="M24.418,66.176a1.565,1.565,0,0,1-1.66-1.476H21.8a2.5,2.5,0,0,0,2.618,2.327A2.5,2.5,0,0,0,27.036,64.7h-.958A1.565,1.565,0,0,1,24.418,66.176Z" transform="translate(-16.339 -47.592)"/><path d="M24.36,67.162a2.68,2.68,0,0,1-2.81-2.52V64.45h1.342v.192a1.481,1.481,0,0,0,2.936,0V64.45h1.342v.192A2.68,2.68,0,0,1,24.36,67.162Zm-2.416-2.327a2.026,2.026,0,0,0,.7,1.307,2.644,2.644,0,0,0,3.44,0,2.026,2.026,0,0,0,.7-1.307H26.2a1.886,1.886,0,0,1-3.682,0Z" transform="translate(-16.282 -47.535)"/></g></g></g></svg>