<svg xmlns="http://www.w3.org/2000/svg" width="22.802" height="22.802" viewBox="0 0 22.802 22.802"><path d="M15.8,12A3.8,3.8,0,1,1,12,15.8,3.8,3.8,0,0,1,15.8,12Zm0,5.7a1.9,1.9,0,1,0-1.9-1.9A1.9,1.9,0,0,0,15.8,17.7Z" transform="translate(-4.399 -4.399)"/><path d="M11.477,22.8a2.853,2.853,0,0,1-2.85-2.85V19.88a.614.614,0,0,0-.4-.557L8.167,19.3a.617.617,0,0,0-.678.121l-.052.052A2.851,2.851,0,1,1,3.4,15.441l.052-.052a.615.615,0,0,0,.121-.678l0-.009a.617.617,0,0,0-.564-.374H2.85a2.85,2.85,0,0,1,0-5.7h.072a.614.614,0,0,0,.557-.4q.01-.028.022-.056a.615.615,0,0,0-.121-.678l-.052-.052A2.851,2.851,0,1,1,7.361,3.4l.052.052a.617.617,0,0,0,.678.121.95.95,0,0,1,.189-.061.617.617,0,0,0,.271-.507V2.85a2.85,2.85,0,0,1,5.7,0v.083a.617.617,0,0,0,.374.564l.009,0a.617.617,0,0,0,.678-.121l.052-.052A2.851,2.851,0,1,1,19.4,7.361l-.052.052a.615.615,0,0,0-.121.678.95.95,0,0,1,.061.189.617.617,0,0,0,.507.271h.159a2.85,2.85,0,1,1,0,5.7h-.083a.617.617,0,0,0-.564.374l0,.009a.615.615,0,0,0,.121.678l.052.052A2.851,2.851,0,1,1,15.441,19.4l-.052-.052a.617.617,0,0,0-.678-.121l-.009,0a.617.617,0,0,0-.374.564v.159A2.853,2.853,0,0,1,11.477,22.8Zm-2.57-5.252a2.5,2.5,0,0,1,1.62,2.294q0,.011,0,.022v.086a.95.95,0,1,0,1.9,0V19.79s0,0,0,0a2.529,2.529,0,0,1,4.294-1.8l.007.007.057.057a.951.951,0,1,0,1.346-1.345l-.057-.057-.007-.007a2.53,2.53,0,0,1,1.8-4.294h.089a.95.95,0,0,0,0-1.9h-.165a2.516,2.516,0,0,1-2.3-1.526.95.95,0,0,1-.069-.25,2.5,2.5,0,0,1,.576-2.594L18,6.074l.057-.057A.951.951,0,1,0,16.71,4.671l-.057.057-.007.007a2.53,2.53,0,0,1-4.294-1.8s0,0,0,0V2.85a.95.95,0,1,0-1.9,0v.162s0,0,0,0a2.516,2.516,0,0,1-1.526,2.3.95.95,0,0,1-.25.069,2.518,2.518,0,0,1-2.593-.576L6.074,4.8l-.057-.057A.951.951,0,1,0,4.671,6.092l.057.057.007.007a2.506,2.506,0,0,1,.516,2.75,2.5,2.5,0,0,1-2.294,1.62H2.85a.95.95,0,1,0,0,1.9h.165a2.53,2.53,0,0,1,1.8,4.294l-.007.007-.057.057a.951.951,0,1,0,1.345,1.345l.057-.057.007-.007a2.518,2.518,0,0,1,2.75-.516Z"/></svg>