<svg xmlns="http://www.w3.org/2000/svg" width="33.198" height="25.15" viewBox="0 0 33.198 25.15"><g transform="translate(0 0)"><path d="M32.686,73.776a2.452,2.452,0,0,0-1.679-.967l-2.2-3.817-.35-5.351a1.688,1.688,0,0,0-2.622-1.293l-4.053,2.707a1.7,1.7,0,0,0-.747-.439,1.681,1.681,0,0,0-1.378.215,1.675,1.675,0,0,0-.891-.585l-7.053-1.89a1.688,1.688,0,0,0-2.067,2.067l.177.659-3.2-2.127A1.688,1.688,0,0,0,4,64.253l-.233,3.679-.039-.01a1.688,1.688,0,0,0-2.067,2.067l.752,2.805a2.455,2.455,0,0,0-1.9.983,2.5,2.5,0,0,0-.415,2.2,13.083,13.083,0,0,0,6.758,7.742,3.76,3.76,0,0,0,1.163,2.434,3.806,3.806,0,0,0,2.636,1.058H22.545a3.806,3.806,0,0,0,2.636-1.058,3.76,3.76,0,0,0,1.163-2.433A13.088,13.088,0,0,0,33.1,75.99,2.507,2.507,0,0,0,32.686,73.776ZM27.879,69.4l1.957,3.389H26.455a.5.5,0,1,0-.63,0h-.534l.539-1.951a1.669,1.669,0,0,0-.3-1.5,1.7,1.7,0,0,0-.591-.474l.727-1.259a.682.682,0,0,1,1.181,0L27.878,69.4Zm-1.488-6.218a.682.682,0,0,1,1.059.522l.217,3.323a1.687,1.687,0,0,0-2.874.08l-.942,1.631-.073.017-1.318.342-.2-2.97a1.715,1.715,0,0,0-.021-.175Zm-4.259,7.041h0l1.9-.493a.715.715,0,0,1,.151-.022.685.685,0,0,1,.556.261.665.665,0,0,1,.121.6l-.613,2.219H23.3a.5.5,0,1,0-.63,0H18.29a1.682,1.682,0,0,0-.227-.8l-.355-.615Zm-2.392-4.241,0,0,.457-.306a.667.667,0,0,1,.56-.091.677.677,0,0,1,.5.612l.21,3.161-4.284,1.112-1.156-2Zm-2.456,6.808H8.617a.673.673,0,0,1,.092-.3l3.651-6.324a.682.682,0,0,1,1.181,0l3.651,6.324A.673.673,0,0,1,17.284,72.792ZM10.791,63.5a.675.675,0,0,1,.659-.176l7.053,1.89a.677.677,0,0,1,.309.177l-3.286,2.2-1.114-1.93a1.688,1.688,0,0,0-2.923,0l-.22.38-.182-.121-.472-1.762A.675.675,0,0,1,10.791,63.5Zm-5.786.813a.682.682,0,0,1,1.058-.525l4.7,3.126L9.32,69.42,4.76,68.2ZM2.81,69.07a.675.675,0,0,1,.659-.176l.629.169h0l4.7,1.259-.962,1.667a1.682,1.682,0,0,0-.227.8H3.455l-.821-3.063A.675.675,0,0,1,2.81,69.07Zm29.321,6.646a12.116,12.116,0,0,1-6.3,7.136H11.9a.5.5,0,0,0,0,1.006h13.41A2.827,2.827,0,0,1,22.546,86.2H10.653a2.827,2.827,0,0,1-2.769-2.347H9.892a.5.5,0,0,0,0-1.006H7.366a12.111,12.111,0,0,1-6.3-7.147,1.5,1.5,0,0,1,.249-1.321,1.458,1.458,0,0,1,1.17-.586H30.716a1.454,1.454,0,0,1,1.167.585A1.51,1.51,0,0,1,32.132,75.716Z" transform="translate(0 -62.061)"/></g><g transform="translate(22.821 5.041)"><circle cx="0.503" cy="0.503" r="0.503"/></g><g transform="translate(24.028 3.13)"><circle cx="0.503" cy="0.503" r="0.503"/></g><g transform="translate(25.906 2.191)"><circle cx="0.503" cy="0.503" r="0.503"/></g><g transform="translate(10.95 1.721)"><circle cx="0.503" cy="0.503" r="0.503"/></g><g transform="translate(15.242 3.331)"><circle cx="0.503" cy="0.503" r="0.503"/></g><g transform="translate(17.59 6.885)"><circle cx="0.503" cy="0.503" r="0.503"/></g><g transform="translate(19.602 6.215)"><circle cx="0.503" cy="0.503" r="0.503"/></g><g transform="translate(18.126 5.343)"><circle cx="0.503" cy="0.503" r="0.503"/></g><g transform="translate(7.6 5.679)"><circle cx="0.503" cy="0.503" r="0.503"/></g><g transform="translate(5.586 4.949)"><circle cx="0.503" cy="0.503" r="0.503"/></g><g transform="translate(5.578 3.138)"><circle cx="0.503" cy="0.503" r="0.503"/></g><g transform="translate(7.593 4.137)"><circle cx="0.503" cy="0.503" r="0.503"/></g><g transform="translate(6.725 9.166)"><circle cx="0.503" cy="0.503" r="0.503"/></g><g transform="translate(5.384 7.824)"><circle cx="0.503" cy="0.503" r="0.503"/></g><g transform="translate(27.18 8.763)"><circle cx="0.503" cy="0.503" r="0.503"/></g><g transform="translate(25.906 7.154)"><circle cx="0.503" cy="0.503" r="0.503"/></g><g transform="translate(19.132 9.434)"><circle cx="0.503" cy="0.503" r="0.503"/></g><g transform="translate(21.144 8.696)"><circle cx="0.503" cy="0.503" r="0.503"/></g><g transform="translate(10.749 8.092)"><circle cx="0.503" cy="0.503" r="0.503"/></g><g transform="translate(12.359 5.544)"><circle cx="0.503" cy="0.503" r="0.503"/></g><g transform="translate(12.761 9.434)"><circle cx="0.503" cy="0.503" r="0.503"/></g><g transform="translate(13.432 7.422)"><circle cx="0.503" cy="0.503" r="0.503"/></g><g transform="translate(14.773 9.434)"><circle cx="0.503" cy="0.503" r="0.503"/></g></svg>